<svg width="197" height="89" viewBox="0 0 197 89" fill="none" xmlns="http://www.w3.org/2000/svg">
<g clip-path="url(#clip0_2016_108)">
<path d="M71.9 1.83C51.73 5.49 32.59 12.57 13.72 20.33C10.02 21.85 6.62 24.46 3.62 27.17C1.85 28.77 0.879998 31.46 0.0799985 33.83C-0.260002 34.83 0.439998 36.69 1.3 37.41C1.94 37.95 3.63 37.42 4.77 37.1C5.52 36.89 6.13 36.21 6.81 35.75C17.9 28.25 29.23 21.21 42.18 17.22C53.07 13.86 63.73 12.88 74.11 19.02C81.97 23.67 90.05 27.95 97.88 32.64C109.63 39.66 120.81 47.79 133.04 53.84C151.83 63.13 171.7 64.7 191.77 57.47C193.58 56.82 195 55.09 196.6 53.86C195.14 52.44 193.68 51.01 192.21 49.59C192.13 49.51 192.01 49.47 191.9 49.43C180.63 44.84 171.14 37.66 162.53 29.24C142.61 9.73 118.71 0.11 90.77 0C84.47 0.58 78.09 0.7 71.9 1.83ZM174.88 55.99C171.12 57.29 168.91 54.68 166.49 52.95C163.95 51.13 161.58 49.05 159.14 47.08C158.89 47.34 158.63 47.6 158.38 47.86C161.55 50.73 164.72 53.61 167.83 56.44C164.54 56.06 161.27 55.94 158.12 55.22C156.4 54.83 154.54 53.77 153.39 52.44C148.98 47.34 144.83 42.01 140.59 36.77C140.85 36.45 141.11 36.13 141.37 35.82C145.87 37.73 150.37 39.64 154.87 41.55C154.98 41.33 155.1 41.12 155.21 40.9C148.6 37.09 142 33.29 134.66 29.06C142.41 26.81 149.33 26.28 156.27 27.92C158.09 28.35 159.89 29.61 161.28 30.94C168.93 38.25 176.79 45.22 186.86 49.13C187.94 49.55 189.03 50.14 189.85 50.92C190.5 51.54 190.77 52.57 191.2 53.41C190.2 53.87 189.23 54.6 188.19 54.7C187.09 54.81 185.93 54.32 184.8 54.07C180.65 53.16 176.5 52.24 172.35 51.33C172.19 51.68 172.04 52.03 171.88 52.37C172.82 53.51 173.76 54.65 174.86 55.98L174.88 55.99ZM133.91 31.68C138.02 35.34 140.76 40.51 144.18 44.96C146.63 48.14 149.19 51.22 151.39 53.96C147.61 52.8 143.09 51.15 138.44 50.06C131.04 48.33 129.34 41.82 126.25 36.4C123.25 31.16 120.15 25.97 116.57 19.87C122.8 24.02 128.91 27.22 133.91 31.68ZM123.23 20.31C125.18 19.4 127.22 18.46 129.48 17.41C124.87 16.63 120.58 15.91 117.08 15.32C127.2 9.48 143.91 13.61 155.23 25.97C144.4 22.78 132.79 28.87 123.23 20.31ZM116.24 13.33C112.68 13.86 109.45 14.44 105.65 12.18C102.14 10.09 97.19 10.4 92.88 9.66C91.65 9.45 90.41 9.25 88.26 8.89C103.68 -0.12 117.55 5.45 132.28 10.45C126.32 11.54 121.31 12.58 116.25 13.33H116.24ZM115.65 38.31C113.73 36.58 112.01 35.42 110.8 33.86C107.37 29.42 104.25 24.74 100.81 20.32C98.91 17.88 96.6 15.76 93.65 12.62C98.88 14.15 103.29 15.16 107.5 16.73C112.05 18.43 112.9 22.9 114.39 26.91C115.13 28.9 116.82 30.53 117.94 32.4C118.68 33.63 119.17 35.01 119.78 36.33C117.74 35.51 116.09 33.6 115.65 38.3V38.31ZM70.18 13.31C78.71 12.46 87.25 10.79 94.63 16.85C94.63 16.9 94.63 17.01 94.64 17.12C94.44 17.04 94.24 16.96 94.04 16.89C94.11 17.54 93.94 18.37 94.28 18.81C96.76 21.99 99.35 25.09 101.91 28.21C101.7 28.44 101.5 28.67 101.29 28.9C91.37 22.84 82.09 15.47 70.17 13.31H70.18ZM98.22 2.37C94.61 5.54 78.13 8.8 68.66 8.1C78.04 1.47 83.91 1.52 98.22 2.37ZM32.52 15.94C32.62 16.17 32.71 16.41 32.81 16.64L19 22.55C18.86 22.18 18.71 21.81 18.57 21.43C23.22 19.6 27.87 17.77 32.52 15.94ZM11.06 24.68C11.33 24.99 11.6 25.29 11.87 25.6C9.56 27.67 7.25 29.74 4.94 31.81C4.62 31.48 4.31 31.15 3.99 30.82C6.35 28.77 8.71 26.73 11.06 24.68ZM62.53 8.76C62.33 8.32 62.12 7.88 61.92 7.43C64.46 6.3 66.99 5.17 69.53 4.04C69.7 4.44 69.88 4.84 70.05 5.23C67.54 6.4 65.04 7.58 62.53 8.75V8.76Z" fill="#DFD9C0"/>
<path d="M80.04 82.44C88.94 78.58 97.68 74.36 106.41 70.13C108.9 68.92 111.41 67.44 113.39 65.55C117.62 61.5 116.94 58.89 111.43 57.18C92.15 51.17 74.2 53.27 58.03 66.05C53.8 69.39 49.05 71.09 43.61 70.1C38.34 69.14 33.42 67.77 30.7 62.25C30.12 61.07 27.14 60.21 25.62 60.59C23.89 61.02 21.89 62.77 21.27 64.41C20.84 65.56 22.16 68.05 23.41 68.96C25.83 70.72 28.64 72.13 31.49 73.09C38.55 75.46 44.89 79.05 51.14 83.06C54.83 85.43 59.44 86.38 63.98 88.1C69.56 86.16 74.95 84.65 80.03 82.44H80.04ZM101.07 67.25C99.41 66.76 97.56 66.89 95.8 66.74C95.76 67.08 95.71 67.42 95.67 67.76C97.14 68.15 98.62 68.54 100.21 68.97C94.49 74.35 87.31 71.05 80.91 72.71C83.36 73.08 85.8 73.45 88.51 73.85C81.74 80.39 72.56 82.29 65.82 75.62C69.78 74.54 73.75 73.82 77.43 72.35C81.1 70.88 84.42 68.58 87.98 66.79C90.9 65.32 93.9 64.01 96.93 62.76C99.88 61.54 105.93 61.61 109.55 62.5C110.46 62.72 111.55 62.24 113.14 61.99C109.89 66.7 106.32 68.82 101.08 67.27L101.07 67.25ZM62.75 70.72C60.12 71.86 57.46 73.17 54.67 73.64C46.18 75.1 37.89 74.21 30.11 70.26C28.68 69.53 27.32 68.56 26.16 67.45C25.62 66.93 25.66 65.82 25.43 64.98C26.33 64.78 27.22 64.57 28.12 64.37C28.23 64.63 28.34 64.89 28.46 65.15C28.03 65.49 27.59 65.83 27.13 66.2C27.16 66.39 27.1 66.73 27.23 66.81C36.32 72.79 45.81 75.24 56.32 70.47C58.45 69.5 60.93 69.3 63.92 68.59C63.56 69.29 63.36 70.45 62.77 70.71L62.75 70.72ZM79.07 67.35C78.91 67.05 78.76 66.76 78.6 66.46C83.04 62.75 86.45 57.12 94.18 59.83C89.14 62.33 84.11 64.84 79.07 67.34V67.35ZM65.95 82.42C63.35 81.98 62.25 80.22 64.2 78.05C67.75 79.31 71.14 80.52 74.53 81.73C74.55 82 74.58 82.26 74.6 82.53C71.71 82.53 68.76 82.9 65.95 82.42ZM79.46 61.49C79.64 61.76 79.82 62.03 80 62.3C75.6 65.74 72.13 70.57 65.54 70.73C70.18 67.65 74.82 64.57 79.46 61.49ZM63.95 83.36C63.84 83.83 63.72 84.29 63.61 84.76C60.36 83.95 57.1 83.15 53.85 82.34C53.95 81.92 54.05 81.51 54.15 81.09C57.42 81.85 60.68 82.6 63.95 83.36Z" fill="#DFD9C0"/>
</g>
<defs>
<clipPath id="clip0_2016_108">
<rect width="196.61" height="88.1" fill="white"/>
</clipPath>
</defs>
</svg>
