<svg width="197" height="89" viewBox="0 0 197 89" fill="none" xmlns="http://www.w3.org/2000/svg">
<g clip-path="url(#clip0_2016_105)">
<path d="M124.71 1.83C144.88 5.49 164.02 12.57 182.89 20.33C186.59 21.85 189.99 24.46 192.99 27.17C194.76 28.77 195.73 31.46 196.53 33.83C196.87 34.83 196.17 36.69 195.31 37.41C194.67 37.95 192.98 37.42 191.84 37.1C191.09 36.89 190.48 36.21 189.8 35.75C178.71 28.25 167.38 21.21 154.43 17.22C143.54 13.86 132.88 12.88 122.5 19.02C114.64 23.67 106.56 27.95 98.73 32.64C86.98 39.66 75.8 47.79 63.57 53.84C44.78 63.13 24.91 64.7 4.84 57.47C3.03 56.82 1.61 55.09 0.00999451 53.86C1.47 52.44 2.92999 51.01 4.39999 49.59C4.48 49.51 4.60001 49.47 4.71001 49.43C15.98 44.84 25.47 37.66 34.08 29.24C54 9.73 77.9 0.11 105.84 0C112.14 0.58 118.52 0.7 124.71 1.83ZM21.73 55.99C25.49 57.29 27.7 54.68 30.12 52.95C32.66 51.13 35.03 49.05 37.47 47.08C37.72 47.34 37.98 47.6 38.23 47.86C35.06 50.73 31.89 53.61 28.78 56.44C32.07 56.06 35.34 55.94 38.49 55.22C40.21 54.83 42.07 53.77 43.22 52.44C47.63 47.34 51.78 42.01 56.02 36.77C55.76 36.45 55.5 36.13 55.24 35.82C50.74 37.73 46.24 39.64 41.74 41.55C41.63 41.33 41.51 41.12 41.4 40.9C48.01 37.09 54.61 33.29 61.95 29.06C54.2 26.81 47.28 26.28 40.34 27.92C38.52 28.35 36.72 29.61 35.33 30.94C27.68 38.25 19.82 45.22 9.75 49.13C8.67 49.55 7.58 50.14 6.75999 50.92C6.11 51.54 5.84 52.57 5.41 53.41C6.41 53.87 7.38 54.6 8.42 54.7C9.52 54.81 10.68 54.32 11.81 54.07C15.96 53.16 20.11 52.24 24.26 51.33C24.42 51.68 24.57 52.03 24.73 52.37C23.79 53.51 22.85 54.65 21.75 55.98L21.73 55.99ZM62.7 31.68C58.59 35.34 55.85 40.51 52.43 44.96C49.98 48.14 47.42 51.22 45.22 53.96C49 52.8 53.52 51.15 58.17 50.06C65.57 48.33 67.27 41.82 70.36 36.4C73.36 31.16 76.46 25.97 80.04 19.87C73.81 24.02 67.7 27.22 62.7 31.68ZM73.38 20.31C71.43 19.4 69.39 18.46 67.13 17.41C71.74 16.63 76.03 15.91 79.53 15.32C69.41 9.48 52.7 13.61 41.38 25.97C52.21 22.78 63.82 28.87 73.38 20.31ZM80.37 13.33C83.93 13.86 87.16 14.44 90.96 12.18C94.47 10.09 99.42 10.4 103.73 9.66C104.96 9.45 106.2 9.25 108.35 8.89C92.93 -0.12 79.06 5.45 64.33 10.45C70.29 11.54 75.3 12.58 80.36 13.33H80.37ZM80.96 38.31C82.88 36.58 84.6 35.42 85.81 33.86C89.24 29.42 92.36 24.74 95.8 20.32C97.7 17.88 100.01 15.76 102.96 12.62C97.73 14.15 93.32 15.16 89.11 16.73C84.56 18.43 83.71 22.9 82.22 26.91C81.48 28.9 79.79 30.53 78.67 32.4C77.93 33.63 77.44 35.01 76.83 36.33C78.87 35.51 80.52 33.6 80.96 38.3V38.31ZM126.43 13.31C117.9 12.46 109.36 10.79 101.98 16.85C101.98 16.9 101.98 17.01 101.97 17.12C102.17 17.04 102.37 16.96 102.57 16.89C102.5 17.54 102.67 18.37 102.33 18.81C99.85 21.99 97.26 25.09 94.7 28.21C94.91 28.44 95.11 28.67 95.32 28.9C105.24 22.84 114.52 15.47 126.44 13.31H126.43ZM98.39 2.37C102 5.54 118.48 8.8 127.95 8.1C118.57 1.47 112.7 1.52 98.39 2.37ZM164.09 15.94C163.99 16.17 163.9 16.41 163.8 16.64L177.61 22.55C177.75 22.18 177.9 21.81 178.04 21.43C173.39 19.6 168.74 17.77 164.09 15.94ZM185.55 24.68C185.28 24.99 185.01 25.29 184.74 25.6C187.05 27.67 189.36 29.74 191.67 31.81C191.99 31.48 192.3 31.15 192.62 30.82C190.26 28.77 187.9 26.73 185.55 24.68ZM134.08 8.76C134.28 8.32 134.49 7.88 134.69 7.43C132.15 6.3 129.62 5.17 127.08 4.04C126.91 4.44 126.73 4.84 126.56 5.23C129.07 6.4 131.57 7.58 134.08 8.75V8.76Z" fill="#DFD9C0"/>
<path d="M116.57 82.44C107.67 78.58 98.93 74.36 90.2 70.13C87.71 68.92 85.2 67.44 83.22 65.55C78.99 61.5 79.67 58.89 85.18 57.18C104.46 51.17 122.41 53.27 138.58 66.05C142.81 69.39 147.56 71.09 153 70.1C158.27 69.14 163.19 67.77 165.91 62.25C166.49 61.07 169.47 60.21 170.99 60.59C172.72 61.02 174.72 62.77 175.34 64.41C175.77 65.56 174.45 68.05 173.2 68.96C170.78 70.72 167.97 72.13 165.12 73.09C158.06 75.46 151.72 79.05 145.47 83.06C141.78 85.43 137.17 86.38 132.63 88.1C127.05 86.16 121.66 84.65 116.58 82.44H116.57ZM95.54 67.25C97.2 66.76 99.05 66.89 100.81 66.74C100.85 67.08 100.9 67.42 100.94 67.76C99.47 68.15 97.99 68.54 96.4 68.97C102.12 74.35 109.3 71.05 115.7 72.71C113.25 73.08 110.81 73.45 108.1 73.85C114.87 80.39 124.05 82.29 130.79 75.62C126.83 74.54 122.86 73.82 119.18 72.35C115.51 70.88 112.19 68.58 108.63 66.79C105.71 65.32 102.71 64.01 99.68 62.76C96.73 61.54 90.68 61.61 87.06 62.5C86.15 62.72 85.06 62.24 83.47 61.99C86.72 66.7 90.29 68.82 95.53 67.27L95.54 67.25ZM133.86 70.72C136.49 71.86 139.15 73.17 141.94 73.64C150.43 75.1 158.72 74.21 166.5 70.26C167.93 69.53 169.29 68.56 170.45 67.45C170.99 66.93 170.95 65.82 171.18 64.98C170.28 64.78 169.39 64.57 168.49 64.37C168.38 64.63 168.27 64.89 168.15 65.15C168.58 65.49 169.02 65.83 169.48 66.2C169.45 66.39 169.51 66.73 169.38 66.81C160.29 72.79 150.8 75.24 140.29 70.47C138.16 69.5 135.68 69.3 132.69 68.59C133.05 69.29 133.25 70.45 133.84 70.71L133.86 70.72ZM117.54 67.35C117.7 67.05 117.85 66.76 118.01 66.46C113.57 62.75 110.16 57.12 102.43 59.83C107.47 62.33 112.5 64.84 117.54 67.34V67.35ZM130.66 82.42C133.26 81.98 134.36 80.22 132.41 78.05C128.86 79.31 125.47 80.52 122.08 81.73C122.06 82 122.03 82.26 122.01 82.53C124.9 82.53 127.85 82.9 130.66 82.42ZM117.15 61.49C116.97 61.76 116.79 62.03 116.61 62.3C121.01 65.74 124.48 70.57 131.07 70.73C126.43 67.65 121.79 64.57 117.15 61.49ZM132.66 83.36C132.77 83.83 132.89 84.29 133 84.76C136.25 83.95 139.51 83.15 142.76 82.34C142.66 81.92 142.56 81.51 142.46 81.09C139.19 81.85 135.93 82.6 132.66 83.36Z" fill="#DFD9C0"/>
</g>
<defs>
<clipPath id="clip0_2016_105">
<rect width="196.61" height="88.1" fill="white" transform="matrix(-1 0 0 1 196.61 0)"/>
</clipPath>
</defs>
</svg>
