<svg width="42" height="47" viewBox="0 0 42 47" fill="none" xmlns="http://www.w3.org/2000/svg">
<path d="M24.5596 29.9711L24.8071 30.6429C24.5849 31.1728 24.3525 31.7026 24.105 32.2223C24.052 32.3339 23.999 32.4454 23.9459 32.557C23.7818 32.9068 23.6075 33.2516 23.4333 33.5914C22.5519 35.2443 21.6074 36.8719 20.5291 38.4032C20.524 38.4133 20.5139 38.4234 20.5088 38.4336C20.1351 38.9786 19.7487 39.5136 19.3472 40.0434C17.4885 42.5305 15.3974 44.8552 13.1498 47.0025L12.6018 46.4194C15.3318 43.8868 17.8344 41.1082 19.9937 38.0761C20.2462 37.7263 20.4912 37.3764 20.7336 37.0164C20.8447 36.8567 20.9508 36.6919 21.0569 36.5246C21.7286 35.4902 22.3549 34.4204 22.9509 33.3353C23.0039 33.239 23.0519 33.1401 23.105 33.0437C23.158 32.9423 23.211 32.8359 23.2641 32.7319C23.7287 31.8269 24.1606 30.904 24.5571 29.9711H24.5596Z" fill="#661E34"/>
<path d="M27.1582 2.84703C27.1102 4.07153 26.7087 5.12617 26.4941 5.60279L26.2289 4.95124V4.94617V4.93603C26.3602 3.41491 26.7668 2.56055 26.7087 0.212959C26.9082 1.0876 27.1986 1.95717 27.1582 2.84703Z" fill="#661E34"/>
<path d="M18.5365 13.865L19.8724 17.4269C19.6022 16.9985 19.3648 16.5472 19.1603 16.0807C18.8547 15.3912 18.6325 14.6484 18.5365 13.865Z" fill="#661E34"/>
<path d="M20.9862 20.3957L22.706 24.9691C22.6479 24.9311 22.5898 24.8855 22.5317 24.8424C21.4913 24.0692 20.4937 23.2832 19.5114 22.4745C18.534 21.6734 17.5643 20.8748 16.597 20.0407C15.6298 19.2041 14.6424 18.3979 13.6246 17.4067C15.0338 17.4067 16.3925 17.7819 17.6527 18.3345C18.8472 18.8796 19.976 19.5743 20.9887 20.3906V20.3957H20.9862Z" fill="#661E34"/>
<path d="M22.0998 28.09H18.3572C18.2158 27.9353 18.0819 27.7731 17.9405 27.6134C17.1223 26.7007 16.3419 25.7475 15.554 24.7461C15.1752 24.2263 14.7661 23.7345 14.4074 23.1717C14.0286 22.6165 13.6473 22.0587 13.3291 21.3869C14.0463 21.4883 14.7231 21.6886 15.3722 21.932C16.001 22.2033 16.6349 22.4897 17.2106 22.8599C18.3774 23.5748 19.4229 24.4773 20.332 25.5091C21.0089 26.2976 21.6099 27.1621 22.0998 28.09Z" fill="#661E34"/>
<path d="M23.2666 32.7294C23.2616 32.8714 23.2464 33.0108 23.2287 33.1578C23.1858 33.1198 23.1454 33.0792 23.1075 33.0412C22.115 32.0829 21.264 31.2285 20.4306 30.3488C20.125 30.0243 19.8194 29.7024 19.5265 29.3779H22.6782C23.0747 30.4325 23.3424 31.5607 23.2691 32.7319L23.2666 32.7294Z" fill="#661E34"/>
<path d="M14.7206 28.09H13.4705C13.4554 28.0646 13.4428 28.0367 13.4276 28.0063C13.867 27.986 14.3039 28.0114 14.7206 28.09Z" fill="#661E34"/>
<path d="M21.0594 36.522C21.0266 36.735 20.9761 36.9556 20.913 37.1685C20.8498 37.1153 20.7917 37.0671 20.7337 37.0139C19.9104 36.2989 19.2563 35.6474 18.6376 34.9933C17.9784 34.2936 17.3875 33.599 16.8016 32.9043C16.2157 32.2046 15.6727 31.4694 15.097 30.7038C14.8065 30.2753 14.501 29.8545 14.2004 29.3829H17.6754C18.2613 29.8114 18.7891 30.3159 19.2538 30.8736C19.9609 31.7229 20.4887 32.7192 20.8119 33.784C21.0645 34.6485 21.1983 35.5764 21.0544 36.5246L21.0594 36.522Z" fill="#661E34"/>
<path d="M27.0219 38.3474C26.6103 38.5502 26.1885 38.7353 25.7643 38.9102C24.7465 39.3184 23.6934 39.6353 22.5873 39.8482C21.562 40.0383 20.5064 40.1499 19.3447 40.0383C19.2487 40.0333 19.1553 40.0231 19.0593 40.0079C19.5038 39.3817 19.9988 38.862 20.5266 38.3981C20.8801 38.0913 21.2489 37.8099 21.6201 37.5437C22.5545 36.8922 23.5419 36.3674 24.5773 35.944C25.2062 35.6854 25.8602 35.4725 26.5295 35.3026L26.8982 36.3091C27.2719 37.2725 27.2265 37.9037 27.0245 38.3448L27.0219 38.3474Z" fill="#661E34"/>
<path d="M25.105 31.4567L25.6379 32.8992C25.0772 32.8409 24.509 32.7344 23.9433 32.5545C23.8853 32.5342 23.8221 32.5164 23.764 32.4961C23.8752 32.3998 23.9913 32.306 24.1024 32.2198C24.4408 31.9435 24.7717 31.6899 25.105 31.4567Z" fill="#661E34"/>
<path d="M38.1665 24.4215C37.9493 26.0162 37.1841 27.4536 36.1765 28.63C36.1386 28.6731 36.1032 28.7136 36.0654 28.7517L34.9188 25.9731C35.9113 25.4762 36.924 24.9514 38.1665 24.4215Z" fill="#661E34"/>
<path d="M36.3406 20.4895C35.7218 21.6886 34.9162 22.7838 33.9818 23.7168L32.4287 19.9647V19.9596C32.9262 19.5185 33.4363 19.0799 33.9692 18.6438C34.9869 17.8072 35.9921 16.963 37.3179 16.0731C37.4341 17.6475 37.0022 19.1534 36.3406 20.4895Z" fill="#661E34"/>
<path d="M35.6385 10.7974C35.4264 12.2704 34.9314 13.6951 34.2016 14.9475C33.5197 16.1238 32.6585 17.1836 31.6509 18.0734L30.1306 14.3999C30.3781 13.9385 30.6332 13.4872 30.8958 13.0385C31.5145 11.9585 32.1257 10.914 32.7974 9.84163C33.4667 8.76164 34.0955 7.6639 34.9895 6.36588C35.6916 7.75517 35.833 9.32192 35.6385 10.7974Z" fill="#661E34"/>
<path d="M31.9312 5.10335C31.7999 6.01602 31.5347 6.91094 31.1332 7.72728C30.7316 8.54361 30.224 9.30163 29.6179 9.97346C29.3225 10.2904 29.0068 10.5946 28.6684 10.8633L28.1608 9.63374C28.229 9.46896 28.3022 9.30924 28.3678 9.14699C28.7063 8.37375 29.0548 7.62587 29.4134 6.8932L30.4917 4.68758C30.8655 3.93969 31.1988 3.18674 31.6635 2.34505C31.9918 3.23491 32.0499 4.19068 31.9287 5.10588L31.9312 5.10335Z" fill="#661E34"/>
<path d="M24.0596 1.81267C23.7439 1.68591 23.3954 1.61746 23.0039 1.61746H22.961C22.9029 1.08253 22.908 0.542532 23.0469 0C23.4484 0.616053 23.7691 1.21943 24.0596 1.81267Z" fill="#661E34"/>
<path d="M18.3572 28.09H14.7206C14.8064 28.1052 14.8898 28.1204 14.9731 28.1382C14.9984 28.1382 15.0161 28.1432 15.0363 28.1534C15.1196 28.1686 15.1954 28.1863 15.2787 28.2117C15.4201 28.2446 15.559 28.2903 15.6954 28.3384C15.7914 28.3689 15.8797 28.4018 15.9707 28.4398C16.0287 28.4601 16.0868 28.4829 16.1449 28.5083C16.2181 28.5362 16.2939 28.5717 16.3671 28.6046C16.4783 28.6579 16.5944 28.7162 16.7056 28.7745C16.7914 28.8176 16.8798 28.8658 16.9631 28.9165C17.0263 28.9494 17.0844 28.99 17.1475 29.0229C17.3319 29.1294 17.5061 29.2511 17.6804 29.3779H19.5239C19.1274 28.9494 18.7385 28.5235 18.3572 28.09ZM18.3572 28.09H14.7206C14.8064 28.1052 14.8898 28.1204 14.9731 28.1382C14.9984 28.1382 15.0161 28.1432 15.0363 28.1534C15.1196 28.1686 15.1954 28.1863 15.2787 28.2117C15.4201 28.2446 15.559 28.2903 15.6954 28.3384C15.7914 28.3689 15.8797 28.4018 15.9707 28.4398C16.0287 28.4601 16.0868 28.4829 16.1449 28.5083C16.2181 28.5362 16.2939 28.5717 16.3671 28.6046C16.4783 28.6579 16.5944 28.7162 16.7056 28.7745C16.7914 28.8176 16.8798 28.8658 16.9631 28.9165C17.0263 28.9494 17.0844 28.99 17.1475 29.0229C17.3319 29.1294 17.5061 29.2511 17.6804 29.3779H19.5239C19.1274 28.9494 18.7385 28.5235 18.3572 28.09ZM18.3572 28.09H14.7206C14.8064 28.1052 14.8898 28.1204 14.9731 28.1382C14.9984 28.1382 15.0161 28.1432 15.0363 28.1534C15.1196 28.1686 15.1954 28.1863 15.2787 28.2117C15.4201 28.2446 15.559 28.2903 15.6954 28.3384C15.7914 28.3689 15.8797 28.4018 15.9707 28.4398C16.0287 28.4601 16.0868 28.4829 16.1449 28.5083C16.2181 28.5362 16.2939 28.5717 16.3671 28.6046C16.4783 28.6579 16.5944 28.7162 16.7056 28.7745C16.7914 28.8176 16.8798 28.8658 16.9631 28.9165C17.0263 28.9494 17.0844 28.99 17.1475 29.0229C17.3319 29.1294 17.5061 29.2511 17.6804 29.3779H19.5239C19.1274 28.9494 18.7385 28.5235 18.3572 28.09ZM18.3572 28.09H14.7206C14.8064 28.1052 14.8898 28.1204 14.9731 28.1382C14.9984 28.1382 15.0161 28.1432 15.0363 28.1534C15.1196 28.1686 15.1954 28.1863 15.2787 28.2117C15.4201 28.2446 15.559 28.2903 15.6954 28.3384C15.7914 28.3689 15.8797 28.4018 15.9707 28.4398C16.0287 28.4601 16.0868 28.4829 16.1449 28.5083C16.2181 28.5362 16.2939 28.5717 16.3671 28.6046C16.4783 28.6579 16.5944 28.7162 16.7056 28.7745C16.7914 28.8176 16.8798 28.8658 16.9631 28.9165C17.0263 28.9494 17.0844 28.99 17.1475 29.0229C17.3319 29.1294 17.5061 29.2511 17.6804 29.3779H19.5239C19.1274 28.9494 18.7385 28.5235 18.3572 28.09ZM18.3572 28.09H14.7206C14.8064 28.1052 14.8898 28.1204 14.9731 28.1382C14.9984 28.1382 15.0161 28.1432 15.0363 28.1534C15.1196 28.1686 15.1954 28.1863 15.2787 28.2117C15.4201 28.2446 15.559 28.2903 15.6954 28.3384C15.7914 28.3689 15.8797 28.4018 15.9707 28.4398C16.0287 28.4601 16.0868 28.4829 16.1449 28.5083C16.2181 28.5362 16.2939 28.5717 16.3671 28.6046C16.4783 28.6579 16.5944 28.7162 16.7056 28.7745C16.7914 28.8176 16.8798 28.8658 16.9631 28.9165C17.0263 28.9494 17.0844 28.99 17.1475 29.0229C17.3319 29.1294 17.5061 29.2511 17.6804 29.3779H19.5239C19.1274 28.9494 18.7385 28.5235 18.3572 28.09ZM25.6177 3.48337C25.254 2.67718 24.7565 2.09408 24.0595 1.81267C24.2717 2.24619 24.4661 2.66704 24.6656 3.09548L25.3576 4.6166C25.5849 5.13632 25.8475 5.62815 26.0849 6.23406L26.143 6.2087C26.1682 5.8335 26.191 5.46589 26.2162 5.09068C26.2213 5.04251 26.2263 4.99435 26.2314 4.94871V4.94364C26.2314 4.94364 26.2263 4.93857 26.2314 4.9335L25.6202 3.48083L25.6177 3.48337ZM18.3572 28.09H14.7206C14.8064 28.1052 14.8898 28.1204 14.9731 28.1382C14.9984 28.1382 15.0161 28.1432 15.0363 28.1534C15.1196 28.1686 15.1954 28.1863 15.2787 28.2117C15.4201 28.2446 15.559 28.2903 15.6954 28.3384C15.7914 28.3689 15.8797 28.4018 15.9707 28.4398C16.0287 28.4601 16.0868 28.4829 16.1449 28.5083C16.2181 28.5362 16.2939 28.5717 16.3671 28.6046C16.4783 28.6579 16.5944 28.7162 16.7056 28.7745C16.7914 28.8176 16.8798 28.8658 16.9631 28.9165C17.0263 28.9494 17.0844 28.99 17.1475 29.0229C17.3319 29.1294 17.5061 29.2511 17.6804 29.3779H19.5239C19.1274 28.9494 18.7385 28.5235 18.3572 28.09ZM28.6684 10.8608C28.3148 11.1473 27.9335 11.3957 27.5067 11.5935C27.5269 11.6847 27.5395 11.7785 27.5496 11.8698C27.5294 11.8597 27.5118 11.8444 27.4916 11.8368C27.7289 13.6546 27.8249 15.4875 27.7719 17.323C27.7441 18.3193 27.6709 19.3106 27.5547 20.2968C27.9916 18.8061 28.532 17.5765 29.1028 16.3901C29.4361 15.7056 29.7745 15.0439 30.1281 14.3974L28.6659 10.8583L28.6684 10.8608ZM26.494 5.60279C26.4157 5.78279 26.3627 5.87913 26.3627 5.87913C26.3627 5.87913 26.3097 6.04392 26.1935 6.33039V6.33546C26.7491 7.8363 27.1077 9.38784 27.3602 10.9571C27.4082 11.1219 27.4511 11.2918 27.4865 11.4667C27.686 10.8101 27.9183 10.2092 28.1583 9.62868L26.494 5.60026V5.60279ZM27.2693 11.7177V11.7126C26.3778 11.198 25.6101 10.6732 24.8576 10.1281C24.0343 9.52474 23.259 8.90869 22.4988 8.26221C21.7286 7.63095 21.0038 6.94138 20.2664 6.23152C19.5441 5.49885 18.8143 4.74843 18.1551 3.77238C19.3168 3.81041 20.3926 4.12224 21.3876 4.56843C22.3902 5.00702 23.2994 5.618 24.1378 6.31265C24.9661 7.01743 25.701 7.83884 26.3122 8.75658C26.5698 9.1546 26.8072 9.57291 27.0041 10.0115C26.7971 8.81996 26.5142 7.64363 26.1228 6.50786C26.1228 6.51293 26.1177 6.51293 26.1177 6.518V6.50279C26.0925 6.41913 26.0647 6.338 26.0344 6.25434L26.0723 6.23913C25.4662 6.02617 24.9535 5.63575 24.5293 5.17942C24.1075 4.71801 23.754 4.19322 23.5039 3.62788C23.2463 3.06506 23.067 2.47183 22.9812 1.86338C22.9711 1.77972 22.961 1.69859 22.9559 1.61493H19.2815C18.1198 1.61493 17.1323 2.25633 16.6677 3.48083L3.54314 36.195C2.78805 37.886 1.51019 38.8189 0.871265 39.2271C0.290422 39.6353 0 39.9851 0 40.4516C0 40.9181 0.40659 41.2679 0.929349 41.2679H8.48031C8.94498 41.2679 9.35157 40.9181 9.35157 40.3933C9.35157 39.9268 9.00307 39.6353 8.36414 39.2854C6.97012 38.5857 5.22759 37.5944 6.15694 34.9122L8.18989 29.3779H14.2029C13.9503 28.99 13.7054 28.5717 13.473 28.09H8.65709L16.15 7.50926L18.5365 13.865C18.4784 13.4467 18.4632 13.0182 18.4885 12.5822C19.5921 13.2287 20.3952 13.9334 21.2033 14.6332C21.9887 15.343 22.7034 16.0757 23.3878 16.8489C24.0696 17.6222 24.7035 18.4385 25.3046 19.3283C25.8904 20.2081 26.441 21.1309 26.9031 22.2844C27.1557 20.9686 27.3299 19.6402 27.4259 18.3041C26.3854 17.6957 25.5722 16.9833 24.7641 16.2912C23.9509 15.5712 23.1857 14.8487 22.4407 14.0982C21.7008 13.3504 20.9785 12.5873 20.2613 11.7811C19.5593 10.9546 18.8345 10.1535 18.1703 9.11404C19.3749 9.23573 20.4937 9.63883 21.5013 10.2067C22.514 10.7695 23.4383 11.4743 24.2414 12.2957C25.7894 13.8802 27.0143 15.8146 27.441 18.0988C27.4612 17.8351 27.4739 17.5791 27.484 17.3154C27.5673 15.4444 27.4941 13.5735 27.2718 11.7177H27.2693ZM14.7206 28.09C14.8064 28.1052 14.8898 28.1204 14.9731 28.1382C14.9984 28.1382 15.0161 28.1432 15.0363 28.1534C15.1196 28.1686 15.1954 28.1863 15.2787 28.2117C15.4201 28.2446 15.559 28.2903 15.6954 28.3384C15.7863 28.3689 15.8797 28.4018 15.9707 28.4398C16.0287 28.4601 16.0868 28.4829 16.1449 28.5083C16.2181 28.5362 16.2914 28.5717 16.3671 28.6046C16.4783 28.6579 16.5944 28.7162 16.7056 28.7745C16.7914 28.8176 16.8798 28.8658 16.9631 28.9165C17.0263 28.9494 17.0844 28.99 17.1475 29.0229C17.3319 29.1294 17.5061 29.2511 17.6804 29.3779H19.5239C19.1274 28.9494 18.7385 28.5235 18.3572 28.09H14.7206ZM22.7034 24.9692L23.8752 28.09H22.0973C22.2513 28.3866 22.3978 28.6934 22.5291 29.0027C22.5771 29.1294 22.6301 29.2511 22.6731 29.3779H24.3373L24.5545 29.9711C24.802 29.4032 25.0293 28.8252 25.2515 28.2446C25.4106 27.8111 25.5571 27.3801 25.701 26.9415C24.6075 26.328 23.6378 25.6537 22.7009 24.9692H22.7034ZM23.5999 21.1486C22.6276 20.5503 21.7564 19.8126 21.0063 18.9557C20.5896 18.4892 20.2083 17.9796 19.8775 17.4396L20.9861 20.3906V20.3957C21.029 20.4235 21.0745 20.4641 21.1174 20.4971C22.168 21.3616 23.1176 22.3376 23.9358 23.4227C24.6808 24.4241 25.345 25.499 25.7743 26.7235C26.2339 25.2861 26.6077 23.8232 26.893 22.3351C25.643 22.2033 24.5747 21.7266 23.6024 21.1486H23.5999ZM31.6509 18.0734C31.5827 18.1419 31.5095 18.2053 31.4438 18.2636C30.3402 19.1813 29.0851 19.9647 27.5572 20.3044C27.2996 22.5354 26.8299 24.7359 26.1834 26.8807C26.8653 25.8007 27.5976 24.8982 28.3426 24.0387C29.2341 23.0221 30.1432 22.0942 31.0776 21.2145C31.5271 20.7912 31.9741 20.3728 32.4338 19.9647V19.9596L31.6534 18.0734H31.6509ZM22.7034 24.9692L23.8752 28.09H22.0973C22.2513 28.3866 22.3978 28.6934 22.5291 29.0027C22.5771 29.1294 22.6301 29.2511 22.6731 29.3779H24.3373L24.5545 29.9711C24.802 29.4032 25.0293 28.8252 25.2515 28.2446C25.4106 27.8111 25.5571 27.3801 25.701 26.9415C24.6075 26.328 23.6378 25.6537 22.7009 24.9692H22.7034ZM23.5999 21.1486C22.6276 20.5503 21.7564 19.8126 21.0063 18.9557C20.5896 18.4892 20.2083 17.9796 19.8775 17.4396L20.9861 20.3906V20.3957C21.029 20.4235 21.0745 20.4641 21.1174 20.4971C22.168 21.3616 23.1176 22.3376 23.9358 23.4227C24.6808 24.4241 25.345 25.499 25.7743 26.7235C26.2339 25.2861 26.6077 23.8232 26.893 22.3351C25.643 22.2033 24.5747 21.7266 23.6024 21.1486H23.5999ZM22.7034 24.9692L23.8752 28.09H22.0973C22.2513 28.3866 22.3978 28.6934 22.5291 29.0027C22.5771 29.1294 22.6301 29.2511 22.6731 29.3779H24.3373L24.5545 29.9711C24.802 29.4032 25.0293 28.8252 25.2515 28.2446C25.4106 27.8111 25.5571 27.3801 25.701 26.9415C24.6075 26.328 23.6378 25.6537 22.7009 24.9692H22.7034ZM18.3572 28.09H14.7206C14.8064 28.1052 14.8898 28.1204 14.9731 28.1382C14.9984 28.1382 15.0161 28.1432 15.0363 28.1534C15.1196 28.1686 15.1954 28.1863 15.2787 28.2117C15.4201 28.2446 15.559 28.2903 15.6954 28.3384C15.7914 28.3689 15.8797 28.4018 15.9707 28.4398C16.0287 28.4601 16.0868 28.4829 16.1449 28.5083C16.2181 28.5362 16.2939 28.5717 16.3671 28.6046C16.4783 28.6579 16.5944 28.7162 16.7056 28.7745C16.7914 28.8176 16.8798 28.8658 16.9631 28.9165C17.0263 28.9494 17.0844 28.99 17.1475 29.0229C17.3319 29.1294 17.5061 29.2511 17.6804 29.3779H19.5239C19.1274 28.9494 18.7385 28.5235 18.3572 28.09ZM23.5999 21.1486C22.6276 20.5503 21.7564 19.8126 21.0063 18.9557C20.5896 18.4892 20.2083 17.9796 19.8775 17.4396L20.9861 20.3906V20.3957C21.029 20.4235 21.0745 20.4641 21.1174 20.4971C22.168 21.3616 23.1176 22.3376 23.9358 23.4227C24.6808 24.4241 25.345 25.499 25.7743 26.7235C26.2339 25.2861 26.6077 23.8232 26.893 22.3351C25.643 22.2033 24.5747 21.7266 23.6024 21.1486H23.5999ZM22.7034 24.9692L23.8752 28.09H22.0973C22.2513 28.3866 22.3978 28.6934 22.5291 29.0027C22.5771 29.1294 22.6301 29.2511 22.6731 29.3779H24.3373L24.5545 29.9711C24.802 29.4032 25.0293 28.8252 25.2515 28.2446C25.4106 27.8111 25.5571 27.3801 25.701 26.9415C24.6075 26.328 23.6378 25.6537 22.7009 24.9692H22.7034ZM18.3572 28.09H14.7206C14.8064 28.1052 14.8898 28.1204 14.9731 28.1382C14.9984 28.1382 15.0161 28.1432 15.0363 28.1534C15.1196 28.1686 15.1954 28.1863 15.2787 28.2117C15.4201 28.2446 15.559 28.2903 15.6954 28.3384C15.7914 28.3689 15.8797 28.4018 15.9707 28.4398C16.0287 28.4601 16.0868 28.4829 16.1449 28.5083C16.2181 28.5362 16.2939 28.5717 16.3671 28.6046C16.4783 28.6579 16.5944 28.7162 16.7056 28.7745C16.7914 28.8176 16.8798 28.8658 16.9631 28.9165C17.0263 28.9494 17.0844 28.99 17.1475 29.0229C17.3319 29.1294 17.5061 29.2511 17.6804 29.3779H19.5239C19.1274 28.9494 18.7385 28.5235 18.3572 28.09ZM23.5999 21.1486C22.6276 20.5503 21.7564 19.8126 21.0063 18.9557C20.5896 18.4892 20.2083 17.9796 19.8775 17.4396L20.9861 20.3906V20.3957C21.029 20.4235 21.0745 20.4641 21.1174 20.4971C22.168 21.3616 23.1176 22.3376 23.9358 23.4227C24.6808 24.4241 25.345 25.499 25.7743 26.7235C26.2339 25.2861 26.6077 23.8232 26.893 22.3351C25.643 22.2033 24.5747 21.7266 23.6024 21.1486H23.5999ZM22.7034 24.9692L23.8752 28.09H22.0973C22.2513 28.3866 22.3978 28.6934 22.5291 29.0027C22.5771 29.1294 22.6301 29.2511 22.6731 29.3779H24.3373L24.5545 29.9711C24.802 29.4032 25.0293 28.8252 25.2515 28.2446C25.4106 27.8111 25.5571 27.3801 25.701 26.9415C24.6075 26.328 23.6378 25.6537 22.7009 24.9692H22.7034ZM18.3572 28.09H14.7206C14.8064 28.1052 14.8898 28.1204 14.9731 28.1382C14.9984 28.1382 15.0161 28.1432 15.0363 28.1534C15.1196 28.1686 15.1954 28.1863 15.2787 28.2117C15.4201 28.2446 15.559 28.2903 15.6954 28.3384C15.7914 28.3689 15.8797 28.4018 15.9707 28.4398C16.0287 28.4601 16.0868 28.4829 16.1449 28.5083C16.2181 28.5362 16.2939 28.5717 16.3671 28.6046C16.4783 28.6579 16.5944 28.7162 16.7056 28.7745C16.7914 28.8176 16.8798 28.8658 16.9631 28.9165C17.0263 28.9494 17.0844 28.99 17.1475 29.0229C17.3319 29.1294 17.5061 29.2511 17.6804 29.3779H19.5239C19.1274 28.9494 18.7385 28.5235 18.3572 28.09ZM23.5999 21.1486C22.6276 20.5503 21.7564 19.8126 21.0063 18.9557C20.5896 18.4892 20.2083 17.9796 19.8775 17.4396L20.9861 20.3906V20.3957C21.029 20.4235 21.0745 20.4641 21.1174 20.4971C22.168 21.3616 23.1176 22.3376 23.9358 23.4227C24.6808 24.4241 25.345 25.499 25.7743 26.7235C26.2339 25.2861 26.6077 23.8232 26.893 22.3351C25.643 22.2033 24.5747 21.7266 23.6024 21.1486H23.5999ZM22.7034 24.9692L23.8752 28.09H22.0973C22.2513 28.3866 22.3978 28.6934 22.5291 29.0027C22.5771 29.1294 22.6301 29.2511 22.6731 29.3779H24.3373L24.5545 29.9711C24.802 29.4032 25.0293 28.8252 25.2515 28.2446C25.4106 27.8111 25.5571 27.3801 25.701 26.9415C24.6075 26.328 23.6378 25.6537 22.7009 24.9692H22.7034ZM18.3572 28.09H14.7206C14.8064 28.1052 14.8898 28.1204 14.9731 28.1382C14.9984 28.1382 15.0161 28.1432 15.0363 28.1534C15.1196 28.1686 15.1954 28.1863 15.2787 28.2117C15.4201 28.2446 15.559 28.2903 15.6954 28.3384C15.7914 28.3689 15.8797 28.4018 15.9707 28.4398C16.0287 28.4601 16.0868 28.4829 16.1449 28.5083C16.2181 28.5362 16.2939 28.5717 16.3671 28.6046C16.4783 28.6579 16.5944 28.7162 16.7056 28.7745C16.7914 28.8176 16.8798 28.8658 16.9631 28.9165C17.0263 28.9494 17.0844 28.99 17.1475 29.0229C17.3319 29.1294 17.5061 29.2511 17.6804 29.3779H19.5239C19.1274 28.9494 18.7385 28.5235 18.3572 28.09ZM23.5999 21.1486C22.6276 20.5503 21.7564 19.8126 21.0063 18.9557C20.5896 18.4892 20.2083 17.9796 19.8775 17.4396L20.9861 20.3906V20.3957C21.029 20.4235 21.0745 20.4641 21.1174 20.4971C22.168 21.3616 23.1176 22.3376 23.9358 23.4227C24.6808 24.4241 25.345 25.499 25.7743 26.7235C26.2339 25.2861 26.6077 23.8232 26.893 22.3351C25.643 22.2033 24.5747 21.7266 23.6024 21.1486H23.5999ZM22.7034 24.9692L23.8752 28.09H22.0973C22.2513 28.3866 22.3978 28.6934 22.5291 29.0027C22.5771 29.1294 22.6301 29.2511 22.6731 29.3779H24.3373L24.5545 29.9711C24.802 29.4032 25.0293 28.8252 25.2515 28.2446C25.4106 27.8111 25.5571 27.3801 25.701 26.9415C24.6075 26.328 23.6378 25.6537 22.7009 24.9692H22.7034ZM18.3572 28.09H14.7206C14.8064 28.1052 14.8898 28.1204 14.9731 28.1382C14.9984 28.1382 15.0161 28.1432 15.0363 28.1534C15.1196 28.1686 15.1954 28.1863 15.2787 28.2117C15.4201 28.2446 15.559 28.2903 15.6954 28.3384C15.7914 28.3689 15.8797 28.4018 15.9707 28.4398C16.0287 28.4601 16.0868 28.4829 16.1449 28.5083C16.2181 28.5362 16.2939 28.5717 16.3671 28.6046C16.4783 28.6579 16.5944 28.7162 16.7056 28.7745C16.7914 28.8176 16.8798 28.8658 16.9631 28.9165C17.0263 28.9494 17.0844 28.99 17.1475 29.0229C17.3319 29.1294 17.5061 29.2511 17.6804 29.3779H19.5239C19.1274 28.9494 18.7385 28.5235 18.3572 28.09ZM23.5999 21.1486C22.6276 20.5503 21.7564 19.8126 21.0063 18.9557C20.5896 18.4892 20.2083 17.9796 19.8775 17.4396L20.9861 20.3906V20.3957C21.029 20.4235 21.0745 20.4641 21.1174 20.4971C22.168 21.3616 23.1176 22.3376 23.9358 23.4227C24.6808 24.4241 25.345 25.499 25.7743 26.7235C26.2339 25.2861 26.6077 23.8232 26.893 22.3351C25.643 22.2033 24.5747 21.7266 23.6024 21.1486H23.5999ZM22.7034 24.9692L23.8752 28.09H22.0973C22.2513 28.3866 22.3978 28.6934 22.5291 29.0027C22.5771 29.1294 22.6301 29.2511 22.6731 29.3779H24.3373L24.5545 29.9711C24.802 29.4032 25.0293 28.8252 25.2515 28.2446C25.4106 27.8111 25.5571 27.3801 25.701 26.9415C24.6075 26.328 23.6378 25.6537 22.7009 24.9692H22.7034ZM18.3572 28.09H14.7206C14.8064 28.1052 14.8898 28.1204 14.9731 28.1382C14.9984 28.1382 15.0161 28.1432 15.0363 28.1534C15.1196 28.1686 15.1954 28.1863 15.2787 28.2117C15.4201 28.2446 15.559 28.2903 15.6954 28.3384C15.7914 28.3689 15.8797 28.4018 15.9707 28.4398C16.0287 28.4601 16.0868 28.4829 16.1449 28.5083C16.2181 28.5362 16.2939 28.5717 16.3671 28.6046C16.4783 28.6579 16.5944 28.7162 16.7056 28.7745C16.7914 28.8176 16.8798 28.8658 16.9631 28.9165C17.0263 28.9494 17.0844 28.99 17.1475 29.0229C17.3319 29.1294 17.5061 29.2511 17.6804 29.3779H19.5239C19.1274 28.9494 18.7385 28.5235 18.3572 28.09ZM23.5999 21.1486C22.6276 20.5503 21.7564 19.8126 21.0063 18.9557C20.5896 18.4892 20.2083 17.9796 19.8775 17.4396L20.9861 20.3906V20.3957C21.029 20.4235 21.0745 20.4641 21.1174 20.4971C22.168 21.3616 23.1176 22.3376 23.9358 23.4227C24.6808 24.4241 25.345 25.499 25.7743 26.7235C26.2339 25.2861 26.6077 23.8232 26.893 22.3351C25.643 22.2033 24.5747 21.7266 23.6024 21.1486H23.5999ZM18.3572 28.09H14.7206C14.8064 28.1052 14.8898 28.1204 14.9731 28.1382C14.9984 28.1382 15.0161 28.1432 15.0363 28.1534C15.1196 28.1686 15.1954 28.1863 15.2787 28.2117C15.4201 28.2446 15.559 28.2903 15.6954 28.3384C15.7914 28.3689 15.8797 28.4018 15.9707 28.4398C16.0287 28.4601 16.0868 28.4829 16.1449 28.5083C16.2181 28.5362 16.2939 28.5717 16.3671 28.6046C16.4783 28.6579 16.5944 28.7162 16.7056 28.7745C16.7914 28.8176 16.8798 28.8658 16.9631 28.9165C17.0263 28.9494 17.0844 28.99 17.1475 29.0229C17.3319 29.1294 17.5061 29.2511 17.6804 29.3779H19.5239C19.1274 28.9494 18.7385 28.5235 18.3572 28.09ZM22.7034 24.9692L23.8752 28.09H22.0973C22.2513 28.3866 22.3978 28.6934 22.5291 29.0027C22.5771 29.1294 22.6301 29.2511 22.6731 29.3779H24.3373L24.5545 29.9711C24.802 29.4032 25.0293 28.8252 25.2515 28.2446C25.4106 27.8111 25.5571 27.3801 25.701 26.9415C24.6075 26.328 23.6378 25.6537 22.7009 24.9692H22.7034ZM23.5999 21.1486C22.6276 20.5503 21.7564 19.8126 21.0063 18.9557C20.5896 18.4892 20.2083 17.9796 19.8775 17.4396L20.9861 20.3906V20.3957C21.029 20.4235 21.0745 20.4641 21.1174 20.4971C22.168 21.3616 23.1176 22.3376 23.9358 23.4227C24.6808 24.4241 25.345 25.499 25.7743 26.7235C26.2339 25.2861 26.6077 23.8232 26.893 22.3351C25.643 22.2033 24.5747 21.7266 23.6024 21.1486H23.5999ZM33.9844 23.7168C33.8884 23.8131 33.7899 23.9069 33.6939 23.9982C32.6282 24.9945 31.4337 25.8261 30.1205 26.4472C28.8578 27.0303 27.4966 27.4765 25.9814 27.5018C25.8904 27.8035 25.7869 28.1052 25.6859 28.4018C25.4106 29.1548 25.1202 29.9026 24.8045 30.6429L25.105 31.4593C25.8601 30.9091 26.6001 30.4376 27.3476 29.9863C28.5194 29.2815 29.6659 28.6452 30.8226 28.0469C31.9792 27.4486 33.1081 26.8553 34.2975 26.2773C34.5046 26.1759 34.7092 26.0745 34.9162 25.9706L33.9818 23.7168H33.9844ZM23.9333 23.4252C24.6783 24.4266 25.3424 25.5015 25.7718 26.726C26.2314 25.2886 26.6051 23.8258 26.8905 22.3376C25.6404 22.2058 24.5722 21.7292 23.5999 21.1512C22.6276 20.5528 21.7564 19.8151 21.0063 18.9582C20.5896 18.4917 20.2083 17.9822 19.8775 17.4422L20.9861 20.3931V20.3982C21.029 20.4261 21.0745 20.4666 21.1174 20.4996C22.168 21.3641 23.1176 22.3402 23.9358 23.4252H23.9333ZM25.7061 26.9415C24.6126 26.328 23.6428 25.6537 22.7059 24.9692L23.8777 28.09H22.0998C22.2539 28.3866 22.4003 28.6934 22.5317 29.0027C22.5796 29.1294 22.6327 29.2511 22.6756 29.3779H24.3398L24.557 29.9711C24.8045 29.4032 25.0318 28.8252 25.254 28.2446C25.4131 27.8111 25.5596 27.3801 25.7036 26.9415H25.7061ZM14.7206 28.09C14.8064 28.1052 14.8898 28.1204 14.9731 28.1382C14.9984 28.1382 15.0161 28.1432 15.0363 28.1534C15.1196 28.1686 15.1954 28.1863 15.2787 28.2117C15.4201 28.2446 15.559 28.2903 15.6954 28.3384C15.7914 28.3689 15.8797 28.4018 15.9707 28.4398C16.0287 28.4601 16.0868 28.4829 16.1449 28.5083C16.2181 28.5362 16.2939 28.5717 16.3671 28.6046C16.4783 28.6579 16.5944 28.7162 16.7056 28.7745C16.7914 28.8176 16.8798 28.8658 16.9631 28.9165C17.0263 28.9494 17.0844 28.9849 17.1475 29.0229C17.3319 29.1294 17.5061 29.2511 17.6804 29.3779H19.5239C19.1274 28.9494 18.7385 28.5235 18.3572 28.09H14.7206ZM23.5999 21.1486C22.6276 20.5503 21.7564 19.8126 21.0063 18.9557C20.5896 18.4892 20.2083 17.9796 19.8775 17.4396L20.9861 20.3906V20.3957C21.029 20.4235 21.0745 20.4641 21.1174 20.4971C22.168 21.3616 23.1176 22.3376 23.9358 23.4227C24.6808 24.4241 25.345 25.499 25.7743 26.7235C26.2339 25.2861 26.6077 23.8232 26.893 22.3351C25.643 22.2033 24.5747 21.7266 23.6024 21.1486H23.5999ZM22.7034 24.9692L23.8752 28.09H22.0973C22.2513 28.3866 22.3978 28.6934 22.5291 29.0027C22.5771 29.1294 22.6301 29.2511 22.6731 29.3779H24.3373L24.5545 29.9711C24.802 29.4032 25.0293 28.8252 25.2515 28.2446C25.4106 27.8111 25.5571 27.3801 25.701 26.9415C24.6075 26.328 23.6378 25.6537 22.7009 24.9692H22.7034ZM18.3572 28.09H14.7206C14.8064 28.1052 14.8898 28.1204 14.9731 28.1382C14.9984 28.1382 15.0161 28.1432 15.0363 28.1534C15.1196 28.1686 15.1954 28.1863 15.2787 28.2117C15.4201 28.2446 15.559 28.2903 15.6954 28.3384C15.7914 28.3689 15.8797 28.4018 15.9707 28.4398C16.0287 28.4601 16.0868 28.4829 16.1449 28.5083C16.2181 28.5362 16.2939 28.5717 16.3671 28.6046C16.4783 28.6579 16.5944 28.7162 16.7056 28.7745C16.7914 28.8176 16.8798 28.8658 16.9631 28.9165C17.0263 28.9494 17.0844 28.99 17.1475 29.0229C17.3319 29.1294 17.5061 29.2511 17.6804 29.3779H19.5239C19.1274 28.9494 18.7385 28.5235 18.3572 28.09ZM23.5999 21.1486C22.6276 20.5503 21.7564 19.8126 21.0063 18.9557C20.5896 18.4892 20.2083 17.9796 19.8775 17.4396L20.9861 20.3906V20.3957C21.029 20.4235 21.0745 20.4641 21.1174 20.4971C22.168 21.3616 23.1176 22.3376 23.9358 23.4227C24.6808 24.4241 25.345 25.499 25.7743 26.7235C26.2339 25.2861 26.6077 23.8232 26.893 22.3351C25.643 22.2033 24.5747 21.7266 23.6024 21.1486H23.5999ZM22.7034 24.9692L23.8752 28.09H22.0973C22.2513 28.3866 22.3978 28.6934 22.5291 29.0027C22.5771 29.1294 22.6301 29.2511 22.6731 29.3779H24.3373L24.5545 29.9711C24.802 29.4032 25.0293 28.8252 25.2515 28.2446C25.4106 27.8111 25.5571 27.3801 25.701 26.9415C24.6075 26.328 23.6378 25.6537 22.7009 24.9692H22.7034ZM18.3572 28.09H14.7206C14.8064 28.1052 14.8898 28.1204 14.9731 28.1382C14.9984 28.1382 15.0161 28.1432 15.0363 28.1534C15.1196 28.1686 15.1954 28.1863 15.2787 28.2117C15.4201 28.2446 15.559 28.2903 15.6954 28.3384C15.7914 28.3689 15.8797 28.4018 15.9707 28.4398C16.0287 28.4601 16.0868 28.4829 16.1449 28.5083C16.2181 28.5362 16.2939 28.5717 16.3671 28.6046C16.4783 28.6579 16.5944 28.7162 16.7056 28.7745C16.7914 28.8176 16.8798 28.8658 16.9631 28.9165C17.0263 28.9494 17.0844 28.99 17.1475 29.0229C17.3319 29.1294 17.5061 29.2511 17.6804 29.3779H19.5239C19.1274 28.9494 18.7385 28.5235 18.3572 28.09ZM23.5999 21.1486C22.6276 20.5503 21.7564 19.8126 21.0063 18.9557C20.5896 18.4892 20.2083 17.9796 19.8775 17.4396L20.9861 20.3906V20.3957C21.029 20.4235 21.0745 20.4641 21.1174 20.4971C22.168 21.3616 23.1176 22.3376 23.9358 23.4227C24.6808 24.4241 25.345 25.499 25.7743 26.7235C26.2339 25.2861 26.6077 23.8232 26.893 22.3351C25.643 22.2033 24.5747 21.7266 23.6024 21.1486H23.5999ZM22.7034 24.9692L23.8752 28.09H22.0973C22.2513 28.3866 22.3978 28.6934 22.5291 29.0027C22.5771 29.1294 22.6301 29.2511 22.6731 29.3779H24.3373L24.5545 29.9711C24.802 29.4032 25.0293 28.8252 25.2515 28.2446C25.4106 27.8111 25.5571 27.3801 25.701 26.9415C24.6075 26.328 23.6378 25.6537 22.7009 24.9692H22.7034ZM18.3572 28.09H14.7206C14.8064 28.1052 14.8898 28.1204 14.9731 28.1382C14.9984 28.1382 15.0161 28.1432 15.0363 28.1534C15.1196 28.1686 15.1954 28.1863 15.2787 28.2117C15.4201 28.2446 15.559 28.2903 15.6954 28.3384C15.7914 28.3689 15.8797 28.4018 15.9707 28.4398C16.0287 28.4601 16.0868 28.4829 16.1449 28.5083C16.2181 28.5362 16.2939 28.5717 16.3671 28.6046C16.4783 28.6579 16.5944 28.7162 16.7056 28.7745C16.7914 28.8176 16.8798 28.8658 16.9631 28.9165C17.0263 28.9494 17.0844 28.99 17.1475 29.0229C17.3319 29.1294 17.5061 29.2511 17.6804 29.3779H19.5239C19.1274 28.9494 18.7385 28.5235 18.3572 28.09ZM23.5999 21.1486C22.6276 20.5503 21.7564 19.8126 21.0063 18.9557C20.5896 18.4892 20.2083 17.9796 19.8775 17.4396L20.9861 20.3906V20.3957C21.029 20.4235 21.0745 20.4641 21.1174 20.4971C22.168 21.3616 23.1176 22.3376 23.9358 23.4227C24.6808 24.4241 25.345 25.499 25.7743 26.7235C26.2339 25.2861 26.6077 23.8232 26.893 22.3351C25.643 22.2033 24.5747 21.7266 23.6024 21.1486H23.5999ZM22.7034 24.9692L23.8752 28.09H22.0973C22.2513 28.3866 22.3978 28.6934 22.5291 29.0027C22.5771 29.1294 22.6301 29.2511 22.6731 29.3779H24.3373L24.5545 29.9711C24.802 29.4032 25.0293 28.8252 25.2515 28.2446C25.4106 27.8111 25.5571 27.3801 25.701 26.9415C24.6075 26.328 23.6378 25.6537 22.7009 24.9692H22.7034ZM18.3572 28.09H14.7206C14.8064 28.1052 14.8898 28.1204 14.9731 28.1382C14.9984 28.1382 15.0161 28.1432 15.0363 28.1534C15.1196 28.1686 15.1954 28.1863 15.2787 28.2117C15.4201 28.2446 15.559 28.2903 15.6954 28.3384C15.7914 28.3689 15.8797 28.4018 15.9707 28.4398C16.0287 28.4601 16.0868 28.4829 16.1449 28.5083C16.2181 28.5362 16.2939 28.5717 16.3671 28.6046C16.4783 28.6579 16.5944 28.7162 16.7056 28.7745C16.7914 28.8176 16.8798 28.8658 16.9631 28.9165C17.0263 28.9494 17.0844 28.99 17.1475 29.0229C17.3319 29.1294 17.5061 29.2511 17.6804 29.3779H19.5239C19.1274 28.9494 18.7385 28.5235 18.3572 28.09ZM23.5999 21.1486C22.6276 20.5503 21.7564 19.8126 21.0063 18.9557C20.5896 18.4892 20.2083 17.9796 19.8775 17.4396L20.9861 20.3906V20.3957C21.029 20.4235 21.0745 20.4641 21.1174 20.4971C22.168 21.3616 23.1176 22.3376 23.9358 23.4227C24.6808 24.4241 25.345 25.499 25.7743 26.7235C26.2339 25.2861 26.6077 23.8232 26.893 22.3351C25.643 22.2033 24.5747 21.7266 23.6024 21.1486H23.5999ZM22.7034 24.9692L23.8752 28.09H22.0973C22.2513 28.3866 22.3978 28.6934 22.5291 29.0027C22.5771 29.1294 22.6301 29.2511 22.6731 29.3779H24.3373L24.5545 29.9711C24.802 29.4032 25.0293 28.8252 25.2515 28.2446C25.4106 27.8111 25.5571 27.3801 25.701 26.9415C24.6075 26.328 23.6378 25.6537 22.7009 24.9692H22.7034ZM18.3572 28.09H14.7206C14.8064 28.1052 14.8898 28.1204 14.9731 28.1382C14.9984 28.1382 15.0161 28.1432 15.0363 28.1534C15.1196 28.1686 15.1954 28.1863 15.2787 28.2117C15.4201 28.2446 15.559 28.2903 15.6954 28.3384C15.7914 28.3689 15.8797 28.4018 15.9707 28.4398C16.0287 28.4601 16.0868 28.4829 16.1449 28.5083C16.2181 28.5362 16.2939 28.5717 16.3671 28.6046C16.4783 28.6579 16.5944 28.7162 16.7056 28.7745C16.7914 28.8176 16.8798 28.8658 16.9631 28.9165C17.0263 28.9494 17.0844 28.99 17.1475 29.0229C17.3319 29.1294 17.5061 29.2511 17.6804 29.3779H19.5239C19.1274 28.9494 18.7385 28.5235 18.3572 28.09ZM23.5999 21.1486C22.6276 20.5503 21.7564 19.8126 21.0063 18.9557C20.5896 18.4892 20.2083 17.9796 19.8775 17.4396L20.9861 20.3906V20.3957C21.029 20.4235 21.0745 20.4641 21.1174 20.4971C22.168 21.3616 23.1176 22.3376 23.9358 23.4227C24.6808 24.4241 25.345 25.499 25.7743 26.7235C26.2339 25.2861 26.6077 23.8232 26.893 22.3351C25.643 22.2033 24.5747 21.7266 23.6024 21.1486H23.5999ZM22.7034 24.9692L23.8752 28.09H22.0973C22.2513 28.3866 22.3978 28.6934 22.5291 29.0027C22.5771 29.1294 22.6301 29.2511 22.6731 29.3779H24.3373L24.5545 29.9711C24.802 29.4032 25.0293 28.8252 25.2515 28.2446C25.4106 27.8111 25.5571 27.3801 25.701 26.9415C24.6075 26.328 23.6378 25.6537 22.7009 24.9692H22.7034ZM18.3572 28.09H14.7206C14.8064 28.1052 14.8898 28.1204 14.9731 28.1382C14.9984 28.1382 15.0161 28.1432 15.0363 28.1534C15.1196 28.1686 15.1954 28.1863 15.2787 28.2117C15.4201 28.2446 15.559 28.2903 15.6954 28.3384C15.7914 28.3689 15.8797 28.4018 15.9707 28.4398C16.0287 28.4601 16.0868 28.4829 16.1449 28.5083C16.2181 28.5362 16.2939 28.5717 16.3671 28.6046C16.4783 28.6579 16.5944 28.7162 16.7056 28.7745C16.7914 28.8176 16.8798 28.8658 16.9631 28.9165C17.0263 28.9494 17.0844 28.99 17.1475 29.0229C17.3319 29.1294 17.5061 29.2511 17.6804 29.3779H19.5239C19.1274 28.9494 18.7385 28.5235 18.3572 28.09ZM23.5999 21.1486C22.6276 20.5503 21.7564 19.8126 21.0063 18.9557C20.5896 18.4892 20.2083 17.9796 19.8775 17.4396L20.9861 20.3906V20.3957C21.029 20.4235 21.0745 20.4641 21.1174 20.4971C22.168 21.3616 23.1176 22.3376 23.9358 23.4227C24.6808 24.4241 25.345 25.499 25.7743 26.7235C26.2339 25.2861 26.6077 23.8232 26.893 22.3351C25.643 22.2033 24.5747 21.7266 23.6024 21.1486H23.5999ZM22.7034 24.9692L23.8752 28.09H22.0973C22.2513 28.3866 22.3978 28.6934 22.5291 29.0027C22.5771 29.1294 22.6301 29.2511 22.6731 29.3779H24.3373L24.5545 29.9711C24.802 29.4032 25.0293 28.8252 25.2515 28.2446C25.4106 27.8111 25.5571 27.3801 25.701 26.9415C24.6075 26.328 23.6378 25.6537 22.7009 24.9692H22.7034ZM18.3572 28.09H14.7206C14.8064 28.1052 14.8898 28.1204 14.9731 28.1382C14.9984 28.1382 15.0161 28.1432 15.0363 28.1534C15.1196 28.1686 15.1954 28.1863 15.2787 28.2117C15.4201 28.2446 15.559 28.2903 15.6954 28.3384C15.7914 28.3689 15.8797 28.4018 15.9707 28.4398C16.0287 28.4601 16.0868 28.4829 16.1449 28.5083C16.2181 28.5362 16.2939 28.5717 16.3671 28.6046C16.4783 28.6579 16.5944 28.7162 16.7056 28.7745C16.7914 28.8176 16.8798 28.8658 16.9631 28.9165C17.0263 28.9494 17.0844 28.99 17.1475 29.0229C17.3319 29.1294 17.5061 29.2511 17.6804 29.3779H19.5239C19.1274 28.9494 18.7385 28.5235 18.3572 28.09ZM23.5999 21.1486C22.6276 20.5503 21.7564 19.8126 21.0063 18.9557C20.5896 18.4892 20.2083 17.9796 19.8775 17.4396L20.9861 20.3906V20.3957C21.029 20.4235 21.0745 20.4641 21.1174 20.4971C22.168 21.3616 23.1176 22.3376 23.9358 23.4227C24.6808 24.4241 25.345 25.499 25.7743 26.7235C26.2339 25.2861 26.6077 23.8232 26.893 22.3351C25.643 22.2033 24.5747 21.7266 23.6024 21.1486H23.5999ZM22.7034 24.9692L23.8752 28.09H22.0973C22.2513 28.3866 22.3978 28.6934 22.5291 29.0027C22.5771 29.1294 22.6301 29.2511 22.6731 29.3779H24.3373L24.5545 29.9711C24.802 29.4032 25.0293 28.8252 25.2515 28.2446C25.4106 27.8111 25.5571 27.3801 25.701 26.9415C24.6075 26.328 23.6378 25.6537 22.7009 24.9692H22.7034ZM18.3572 28.09H14.7206C14.8064 28.1052 14.8898 28.1204 14.9731 28.1382C14.9984 28.1382 15.0161 28.1432 15.0363 28.1534C15.1196 28.1686 15.1954 28.1863 15.2787 28.2117C15.4201 28.2446 15.559 28.2903 15.6954 28.3384C15.7914 28.3689 15.8797 28.4018 15.9707 28.4398C16.0287 28.4601 16.0868 28.4829 16.1449 28.5083C16.2181 28.5362 16.2939 28.5717 16.3671 28.6046C16.4783 28.6579 16.5944 28.7162 16.7056 28.7745C16.7914 28.8176 16.8798 28.8658 16.9631 28.9165C17.0263 28.9494 17.0844 28.99 17.1475 29.0229C17.3319 29.1294 17.5061 29.2511 17.6804 29.3779H19.5239C19.1274 28.9494 18.7385 28.5235 18.3572 28.09ZM18.3572 28.09H14.7206C14.8064 28.1052 14.8898 28.1204 14.9731 28.1382C14.9984 28.1382 15.0161 28.1432 15.0363 28.1534C15.1196 28.1686 15.1954 28.1863 15.2787 28.2117C15.4201 28.2446 15.559 28.2903 15.6954 28.3384C15.7914 28.3689 15.8797 28.4018 15.9707 28.4398C16.0287 28.4601 16.0868 28.4829 16.1449 28.5083C16.2181 28.5362 16.2939 28.5717 16.3671 28.6046C16.4783 28.6579 16.5944 28.7162 16.7056 28.7745C16.7914 28.8176 16.8798 28.8658 16.9631 28.9165C17.0263 28.9494 17.0844 28.99 17.1475 29.0229C17.3319 29.1294 17.5061 29.2511 17.6804 29.3779H19.5239C19.1274 28.9494 18.7385 28.5235 18.3572 28.09ZM18.3572 28.09H14.7206C14.8064 28.1052 14.8898 28.1204 14.9731 28.1382C14.9984 28.1382 15.0161 28.1432 15.0363 28.1534C15.1196 28.1686 15.1954 28.1863 15.2787 28.2117C15.4201 28.2446 15.559 28.2903 15.6954 28.3384C15.7914 28.3689 15.8797 28.4018 15.9707 28.4398C16.0287 28.4601 16.0868 28.4829 16.1449 28.5083C16.2181 28.5362 16.2939 28.5717 16.3671 28.6046C16.4783 28.6579 16.5944 28.7162 16.7056 28.7745C16.7914 28.8176 16.8798 28.8658 16.9631 28.9165C17.0263 28.9494 17.0844 28.99 17.1475 29.0229C17.3319 29.1294 17.5061 29.2511 17.6804 29.3779H19.5239C19.1274 28.9494 18.7385 28.5235 18.3572 28.09ZM18.3572 28.09H14.7206C14.8064 28.1052 14.8898 28.1204 14.9731 28.1382C14.9984 28.1382 15.0161 28.1432 15.0363 28.1534C15.1196 28.1686 15.1954 28.1863 15.2787 28.2117C15.4201 28.2446 15.559 28.2903 15.6954 28.3384C15.7914 28.3689 15.8797 28.4018 15.9707 28.4398C16.0287 28.4601 16.0868 28.4829 16.1449 28.5083C16.2181 28.5362 16.2939 28.5717 16.3671 28.6046C16.4783 28.6579 16.5944 28.7162 16.7056 28.7745C16.7914 28.8176 16.8798 28.8658 16.9631 28.9165C17.0263 28.9494 17.0844 28.99 17.1475 29.0229C17.3319 29.1294 17.5061 29.2511 17.6804 29.3779H19.5239C19.1274 28.9494 18.7385 28.5235 18.3572 28.09ZM18.3572 28.09H14.7206C14.8064 28.1052 14.8898 28.1204 14.9731 28.1382C14.9984 28.1382 15.0161 28.1432 15.0363 28.1534C15.1196 28.1686 15.1954 28.1863 15.2787 28.2117C15.4201 28.2446 15.559 28.2903 15.6954 28.3384C15.7914 28.3689 15.8797 28.4018 15.9707 28.4398C16.0287 28.4601 16.0868 28.4829 16.1449 28.5083C16.2181 28.5362 16.2939 28.5717 16.3671 28.6046C16.4783 28.6579 16.5944 28.7162 16.7056 28.7745C16.7914 28.8176 16.8798 28.8658 16.9631 28.9165C17.0263 28.9494 17.0844 28.99 17.1475 29.0229C17.3319 29.1294 17.5061 29.2511 17.6804 29.3779H19.5239C19.1274 28.9494 18.7385 28.5235 18.3572 28.09ZM41.303 39.2271C40.7802 38.8189 39.9671 38.1192 39.3862 36.7781L36.0653 28.7491C35.0728 29.8519 33.8808 30.7748 32.5853 31.4415C31.2443 32.1362 29.8023 32.6077 28.3199 32.8207C27.4385 32.9373 26.542 32.9854 25.6379 32.8993L26.5294 35.3052C26.9562 35.2037 27.3855 35.115 27.8274 35.0466C28.9613 34.8868 30.1508 34.8235 31.4059 35.1581C30.5296 36.1012 29.6381 36.7908 28.6987 37.3992C28.1507 37.7491 27.5951 38.066 27.0244 38.3474C26.84 38.7353 26.5294 38.9787 26.2592 39.1688C25.6783 39.577 25.2717 39.9268 25.2717 40.3933C25.2717 40.9181 25.6783 41.2679 26.2011 41.2679H41.1313C41.654 41.2679 42.0025 40.9181 42.0025 40.3933C42.0025 39.9851 41.7702 39.6353 41.3055 39.2271H41.303ZM18.3572 28.09H14.7206C14.8064 28.1052 14.8898 28.1204 14.9731 28.1382C14.9984 28.1382 15.0161 28.1432 15.0363 28.1534C15.1196 28.1686 15.1954 28.1863 15.2787 28.2117C15.4201 28.2446 15.559 28.2903 15.6954 28.3384C15.7914 28.3689 15.8797 28.4018 15.9707 28.4398C16.0287 28.4601 16.0868 28.4829 16.1449 28.5083C16.2181 28.5362 16.2939 28.5717 16.3671 28.6046C16.4783 28.6579 16.5944 28.7162 16.7056 28.7745C16.7914 28.8176 16.8798 28.8658 16.9631 28.9165C17.0263 28.9494 17.0844 28.99 17.1475 29.0229C17.3319 29.1294 17.5061 29.2511 17.6804 29.3779H19.5239C19.1274 28.9494 18.7385 28.5235 18.3572 28.09ZM18.3572 28.09H14.7206C14.8064 28.1052 14.8898 28.1204 14.9731 28.1382C14.9984 28.1382 15.0161 28.1432 15.0363 28.1534C15.1196 28.1686 15.1954 28.1863 15.2787 28.2117C15.4201 28.2446 15.559 28.2903 15.6954 28.3384C15.7914 28.3689 15.8797 28.4018 15.9707 28.4398C16.0287 28.4601 16.0868 28.4829 16.1449 28.5083C16.2181 28.5362 16.2939 28.5717 16.3671 28.6046C16.4783 28.6579 16.5944 28.7162 16.7056 28.7745C16.7914 28.8176 16.8798 28.8658 16.9631 28.9165C17.0263 28.9494 17.0844 28.99 17.1475 29.0229C17.3319 29.1294 17.5061 29.2511 17.6804 29.3779H19.5239C19.1274 28.9494 18.7385 28.5235 18.3572 28.09Z" fill="#661E34"/>
</svg>
