<svg width="159" height="102" viewBox="0 0 159 102" fill="none" xmlns="http://www.w3.org/2000/svg">
<g clip-path="url(#clip0_2016_73)">
<path d="M97.7366 100.888C97.7366 100.483 98.009 100.139 98.3474 99.8001C98.8882 99.2579 99.3629 98.7118 99.3629 97.5572V58.6373C99.3629 57.6193 98.8882 57.0732 98.4136 56.4647C98.009 55.9888 97.7366 55.6495 97.7366 55.1736C97.7366 54.6314 98.1412 54.2219 98.752 54.2219H109.459C111.151 54.2219 112.236 55.2399 112.236 56.9406V97.5611C112.236 98.7157 112.711 99.2579 113.252 99.804C113.524 100.143 113.793 100.483 113.793 100.892C113.793 101.434 113.52 101.774 112.913 101.774H98.6859C98.0751 101.774 97.7366 101.434 97.7366 100.892V100.888Z" fill="#FFF8DC"/>
<path d="M21.4482 32.718H17.2076C17.3087 32.7336 17.406 32.7531 17.4994 32.7765C17.5266 32.7765 17.5499 32.7804 17.5733 32.7921C17.6705 32.8077 17.76 32.8311 17.8573 32.8584C18.0207 32.8974 18.1841 32.9481 18.3436 33.0067C18.4564 33.0418 18.5576 33.0808 18.6665 33.1237C18.7326 33.1471 18.8027 33.1744 18.8688 33.2017C18.9544 33.2368 19.0439 33.2758 19.1295 33.3148C19.2579 33.3772 19.394 33.4435 19.5263 33.5137C19.6275 33.5644 19.7286 33.6229 19.8259 33.6776C19.8998 33.7166 19.9659 33.7634 20.0399 33.8024C20.2538 33.9272 20.4561 34.0676 20.6623 34.2158H22.8138C22.3508 33.7166 21.8995 33.2212 21.4521 32.7141L21.4482 32.718ZM21.4482 32.718H17.2076C17.3087 32.7336 17.406 32.7531 17.4994 32.7765C17.5266 32.7765 17.5499 32.7804 17.5733 32.7921C17.6705 32.8077 17.76 32.8311 17.8573 32.8584C18.0207 32.8974 18.1841 32.9481 18.3436 33.0067C18.4564 33.0418 18.5576 33.0808 18.6665 33.1237C18.7326 33.1471 18.8027 33.1744 18.8688 33.2017C18.9544 33.2368 19.0439 33.2758 19.1295 33.3148C19.2579 33.3772 19.394 33.4435 19.5263 33.5137C19.6275 33.5644 19.7286 33.6229 19.8259 33.6776C19.8998 33.7166 19.9659 33.7634 20.0399 33.8024C20.2538 33.9272 20.4561 34.0676 20.6623 34.2158H22.8138C22.3508 33.7166 21.8995 33.2212 21.4521 32.7141L21.4482 32.718ZM21.4482 32.718H17.2076C17.3087 32.7336 17.406 32.7531 17.4994 32.7765C17.5266 32.7765 17.5499 32.7804 17.5733 32.7921C17.6705 32.8077 17.76 32.8311 17.8573 32.8584C18.0207 32.8974 18.1841 32.9481 18.3436 33.0067C18.4564 33.0418 18.5576 33.0808 18.6665 33.1237C18.7326 33.1471 18.8027 33.1744 18.8688 33.2017C18.9544 33.2368 19.0439 33.2758 19.1295 33.3148C19.2579 33.3772 19.394 33.4435 19.5263 33.5137C19.6275 33.5644 19.7286 33.6229 19.8259 33.6776C19.8998 33.7166 19.9659 33.7634 20.0399 33.8024C20.2538 33.9272 20.4561 34.0676 20.6623 34.2158H22.8138C22.3508 33.7166 21.8995 33.2212 21.4521 32.7141L21.4482 32.718ZM21.4482 32.718H17.2076C17.3087 32.7336 17.406 32.7531 17.4994 32.7765C17.5266 32.7765 17.5499 32.7804 17.5733 32.7921C17.6705 32.8077 17.76 32.8311 17.8573 32.8584C18.0207 32.8974 18.1841 32.9481 18.3436 33.0067C18.4564 33.0418 18.5576 33.0808 18.6665 33.1237C18.7326 33.1471 18.8027 33.1744 18.8688 33.2017C18.9544 33.2368 19.0439 33.2758 19.1295 33.3148C19.2579 33.3772 19.394 33.4435 19.5263 33.5137C19.6275 33.5644 19.7286 33.6229 19.8259 33.6776C19.8998 33.7166 19.9659 33.7634 20.0399 33.8024C20.2538 33.9272 20.4561 34.0676 20.6623 34.2158H22.8138C22.3508 33.7166 21.8995 33.2212 21.4521 32.7141L21.4482 32.718ZM21.4482 32.718H17.2076C17.3087 32.7336 17.406 32.7531 17.4994 32.7765C17.5266 32.7765 17.5499 32.7804 17.5733 32.7921C17.6705 32.8077 17.76 32.8311 17.8573 32.8584C18.0207 32.8974 18.1841 32.9481 18.3436 33.0067C18.4564 33.0418 18.5576 33.0808 18.6665 33.1237C18.7326 33.1471 18.8027 33.1744 18.8688 33.2017C18.9544 33.2368 19.0439 33.2758 19.1295 33.3148C19.2579 33.3772 19.394 33.4435 19.5263 33.5137C19.6275 33.5644 19.7286 33.6229 19.8259 33.6776C19.8998 33.7166 19.9659 33.7634 20.0399 33.8024C20.2538 33.9272 20.4561 34.0676 20.6623 34.2158H22.8138C22.3508 33.7166 21.8995 33.2212 21.4521 32.7141L21.4482 32.718ZM29.9178 4.0605C29.4937 3.12046 28.914 2.44176 28.1009 2.11411C28.3499 2.61729 28.5756 3.10876 28.8051 3.60803L29.6143 5.37889C29.8789 5.98348 30.1862 6.55687 30.4624 7.26287L30.5286 7.23556C30.5558 6.7987 30.583 6.36964 30.6142 5.93277C30.6181 5.87426 30.6258 5.81966 30.6297 5.76895C30.6297 5.76895 30.6258 5.75725 30.6297 5.75335L29.9178 4.0605ZM21.4482 32.718H17.2076C17.3087 32.7336 17.406 32.7531 17.4994 32.7765C17.5266 32.7765 17.5499 32.7804 17.5733 32.7921C17.6705 32.8077 17.76 32.8311 17.8573 32.8584C18.0207 32.8974 18.1841 32.9481 18.3436 33.0067C18.4564 33.0418 18.5576 33.0808 18.6665 33.1237C18.7326 33.1471 18.8027 33.1744 18.8688 33.2017C18.9544 33.2368 19.0439 33.2758 19.1295 33.3148C19.2579 33.3772 19.394 33.4435 19.5263 33.5137C19.6275 33.5644 19.7286 33.6229 19.8259 33.6776C19.8998 33.7166 19.9659 33.7634 20.0399 33.8024C20.2538 33.9272 20.4561 34.0676 20.6623 34.2158H22.8138C22.3508 33.7166 21.8995 33.2212 21.4521 32.7141L21.4482 32.718ZM33.4737 12.6535C33.0613 12.9889 32.6139 13.2776 32.1198 13.5077C32.1431 13.6169 32.1587 13.7222 32.1704 13.8314C32.147 13.8197 32.1237 13.8041 32.1042 13.7924C32.3805 15.9104 32.4933 18.0441 32.431 20.1816C32.396 21.34 32.3143 22.4985 32.1781 23.6453C32.6878 21.9056 33.3181 20.4741 33.9833 19.0933C34.3724 18.2937 34.7692 17.5253 35.1816 16.7725L33.4776 12.6535H33.4737ZM30.941 6.52566C30.8515 6.73629 30.7892 6.84941 30.7892 6.84941C30.7892 6.84941 30.727 7.04054 30.5908 7.37599C31.2405 9.13124 31.6568 10.9372 31.9525 12.7666C32.0109 12.9577 32.0614 13.1566 32.1003 13.3595C32.3338 12.595 32.6022 11.8928 32.8862 11.2181L30.9449 6.52566H30.941ZM31.8436 13.6481C30.8048 13.0435 29.9061 12.4311 29.0307 11.7953C28.0698 11.0932 27.1672 10.3755 26.2802 9.62272C25.3815 8.88551 24.5372 8.08199 23.6774 7.25507C22.8371 6.40084 21.9851 5.52711 21.2148 4.39205C22.5687 4.43885 23.8214 4.80161 24.9846 5.32038C26.1518 5.83136 27.2139 6.54126 28.1904 7.35258C29.1552 8.1717 30.015 9.13124 30.727 10.2C31.0266 10.6642 31.3028 11.1517 31.5362 11.6588C31.295 10.2702 30.9643 8.90111 30.5091 7.57882C30.5091 7.58272 30.5052 7.58272 30.5052 7.59052V7.57491C30.478 7.4774 30.443 7.38379 30.408 7.28627L30.4547 7.27067C29.7505 7.02103 29.1514 6.56857 28.6534 6.03809C28.1632 5.49981 27.7508 4.88742 27.4551 4.23212C27.1555 3.57683 26.9455 2.88643 26.8443 2.17652C26.8326 2.07901 26.821 1.98539 26.8171 1.88788H22.5336C21.1798 1.88788 20.0282 2.63679 19.4835 4.0605L4.17447 42.1613C3.29523 44.1311 1.80128 45.2194 1.0582 45.6952C0.381257 46.1711 0.0427856 46.5768 0.0427856 47.1228C0.0427856 47.6689 0.517424 48.0746 1.12823 48.0746H9.93628C10.4771 48.0746 10.9517 47.665 10.9517 47.0565C10.9517 46.5143 10.5432 46.175 9.80011 45.7654C8.17389 44.9502 6.14306 43.7956 7.22461 40.6713L9.5978 34.2236H16.6084C16.3167 33.7712 16.0288 33.2836 15.7564 32.7219H10.1386L18.8766 8.74899L21.6583 16.1523C21.5921 15.6647 21.5727 15.1654 21.5999 14.6584C22.8877 15.4112 23.8253 16.2303 24.7668 17.0455C25.681 17.8724 26.5175 18.7267 27.315 19.6277C28.1126 20.5287 28.8518 21.4805 29.5521 22.5141C30.2368 23.54 30.8787 24.6126 31.4156 25.9544C31.7074 24.4215 31.9136 22.8769 32.0264 21.3166C30.8126 20.6106 29.8633 19.7759 28.9218 18.9724C27.9725 18.1338 27.0816 17.2912 26.2102 16.4175C25.3465 15.5477 24.5061 14.6584 23.6697 13.7183C22.8527 12.7549 22.0045 11.8226 21.2303 10.6096C22.6348 10.75 23.942 11.222 25.113 11.885C26.2919 12.5403 27.3695 13.3634 28.3071 14.319C30.1123 16.164 31.544 18.4185 32.0381 21.0787C32.0614 20.7745 32.077 20.4741 32.0887 20.166C32.1859 17.9855 32.1003 15.809 31.8397 13.6442L31.8436 13.6481ZM17.2076 32.718C17.3087 32.7336 17.406 32.7531 17.4994 32.7765C17.5266 32.7765 17.5499 32.7804 17.5733 32.7921C17.6705 32.8077 17.76 32.8311 17.8573 32.8584C18.0207 32.8974 18.1841 32.9481 18.3436 33.0067C18.4525 33.0418 18.5576 33.0808 18.6665 33.1237C18.7326 33.1471 18.8027 33.1744 18.8688 33.2017C18.9544 33.2368 19.04 33.2758 19.1295 33.3148C19.2579 33.3772 19.394 33.4435 19.5263 33.5137C19.6275 33.5644 19.7286 33.6229 19.8259 33.6776C19.8998 33.7166 19.9659 33.7634 20.0399 33.8024C20.2538 33.9272 20.4561 34.0676 20.6623 34.2158H22.8138C22.3508 33.7166 21.8995 33.2212 21.4521 32.7141H17.2115L17.2076 32.718ZM26.5214 29.0827L27.8869 32.718H25.8133C25.9923 33.0652 26.1635 33.4201 26.3152 33.7829C26.3736 33.9311 26.4319 34.0715 26.4864 34.2197H28.4277L28.6806 34.9101C28.9685 34.247 29.2331 33.5722 29.4937 32.9013C29.6805 32.3982 29.8477 31.895 30.0189 31.384C28.7429 30.6702 27.6146 29.8823 26.5175 29.0866L26.5214 29.0827ZM27.564 24.636C26.428 23.9417 25.4126 23.0797 24.5372 22.0812C24.0509 21.539 23.6074 20.9422 23.2223 20.3142L24.5139 23.7506C24.5645 23.7896 24.6151 23.8364 24.6656 23.8754C25.8911 24.8818 26.996 26.0207 27.9531 27.2845C28.8207 28.4508 29.5949 29.7029 30.0967 31.1266C30.6336 29.4493 31.0694 27.7487 31.4 26.0168C29.945 25.8647 28.6962 25.3108 27.5601 24.636H27.564ZM36.9518 21.0514C36.874 21.1294 36.7884 21.2035 36.7106 21.2737C35.4228 22.3425 33.96 23.2552 32.1781 23.6531C31.8786 26.2509 31.33 28.8174 30.5753 31.3138C31.3728 30.0578 32.2248 29.0047 33.0924 28.0022C34.1312 26.8203 35.1933 25.7399 36.2826 24.714C36.8078 24.2226 37.3252 23.735 37.8621 23.2591L36.9518 21.0553V21.0514ZM26.5214 29.0827L27.8869 32.718H25.8133C25.9923 33.0652 26.1635 33.4201 26.3152 33.7829C26.3736 33.9311 26.4319 34.0715 26.4864 34.2197H28.4277L28.6806 34.9101C28.9685 34.247 29.2331 33.5722 29.4937 32.9013C29.6805 32.3982 29.8477 31.895 30.0189 31.384C28.7429 30.6702 27.6146 29.8823 26.5175 29.0866L26.5214 29.0827ZM27.564 24.636C26.428 23.9417 25.4126 23.0797 24.5372 22.0812C24.0509 21.539 23.6074 20.9422 23.2223 20.3142L24.5139 23.7506C24.5645 23.7896 24.6151 23.8364 24.6656 23.8754C25.8911 24.8818 26.996 26.0207 27.9531 27.2845C28.8207 28.4508 29.5949 29.7029 30.0967 31.1266C30.6336 29.4493 31.0694 27.7487 31.4 26.0168C29.945 25.8647 28.6962 25.3108 27.5601 24.636H27.564ZM26.5214 29.0827L27.8869 32.718H25.8133C25.9923 33.0652 26.1635 33.4201 26.3152 33.7829C26.3736 33.9311 26.4319 34.0715 26.4864 34.2197H28.4277L28.6806 34.9101C28.9685 34.247 29.2331 33.5722 29.4937 32.9013C29.6805 32.3982 29.8477 31.895 30.0189 31.384C28.7429 30.6702 27.6146 29.8823 26.5175 29.0866L26.5214 29.0827ZM21.4482 32.718H17.2076C17.3087 32.7336 17.406 32.7531 17.4994 32.7765C17.5266 32.7765 17.5499 32.7804 17.5733 32.7921C17.6705 32.8077 17.76 32.8311 17.8573 32.8584C18.0207 32.8974 18.1841 32.9481 18.3436 33.0067C18.4564 33.0418 18.5576 33.0808 18.6665 33.1237C18.7326 33.1471 18.8027 33.1744 18.8688 33.2017C18.9544 33.2368 19.0439 33.2758 19.1295 33.3148C19.2579 33.3772 19.394 33.4435 19.5263 33.5137C19.6275 33.5644 19.7286 33.6229 19.8259 33.6776C19.8998 33.7166 19.9659 33.7634 20.0399 33.8024C20.2538 33.9272 20.4561 34.0676 20.6623 34.2158H22.8138C22.3508 33.7166 21.8995 33.2212 21.4521 32.7141L21.4482 32.718ZM27.564 24.636C26.428 23.9417 25.4126 23.0797 24.5372 22.0812C24.0509 21.539 23.6074 20.9422 23.2223 20.3142L24.5139 23.7506C24.5645 23.7896 24.6151 23.8364 24.6656 23.8754C25.8911 24.8818 26.996 26.0207 27.9531 27.2845C28.8207 28.4508 29.5949 29.7029 30.0967 31.1266C30.6336 29.4493 31.0694 27.7487 31.4 26.0168C29.945 25.8647 28.6962 25.3108 27.5601 24.636H27.564ZM26.5214 29.0827L27.8869 32.718H25.8133C25.9923 33.0652 26.1635 33.4201 26.3152 33.7829C26.3736 33.9311 26.4319 34.0715 26.4864 34.2197H28.4277L28.6806 34.9101C28.9685 34.247 29.2331 33.5722 29.4937 32.9013C29.6805 32.3982 29.8477 31.895 30.0189 31.384C28.7429 30.6702 27.6146 29.8823 26.5175 29.0866L26.5214 29.0827ZM21.4482 32.718H17.2076C17.3087 32.7336 17.406 32.7531 17.4994 32.7765C17.5266 32.7765 17.5499 32.7804 17.5733 32.7921C17.6705 32.8077 17.76 32.8311 17.8573 32.8584C18.0207 32.8974 18.1841 32.9481 18.3436 33.0067C18.4564 33.0418 18.5576 33.0808 18.6665 33.1237C18.7326 33.1471 18.8027 33.1744 18.8688 33.2017C18.9544 33.2368 19.0439 33.2758 19.1295 33.3148C19.2579 33.3772 19.394 33.4435 19.5263 33.5137C19.6275 33.5644 19.7286 33.6229 19.8259 33.6776C19.8998 33.7166 19.9659 33.7634 20.0399 33.8024C20.2538 33.9272 20.4561 34.0676 20.6623 34.2158H22.8138C22.3508 33.7166 21.8995 33.2212 21.4521 32.7141L21.4482 32.718ZM27.564 24.636C26.428 23.9417 25.4126 23.0797 24.5372 22.0812C24.0509 21.539 23.6074 20.9422 23.2223 20.3142L24.5139 23.7506C24.5645 23.7896 24.6151 23.8364 24.6656 23.8754C25.8911 24.8818 26.996 26.0207 27.9531 27.2845C28.8207 28.4508 29.5949 29.7029 30.0967 31.1266C30.6336 29.4493 31.0694 27.7487 31.4 26.0168C29.945 25.8647 28.6962 25.3108 27.5601 24.636H27.564ZM26.5214 29.0827L27.8869 32.718H25.8133C25.9923 33.0652 26.1635 33.4201 26.3152 33.7829C26.3736 33.9311 26.4319 34.0715 26.4864 34.2197H28.4277L28.6806 34.9101C28.9685 34.247 29.2331 33.5722 29.4937 32.9013C29.6805 32.3982 29.8477 31.895 30.0189 31.384C28.7429 30.6702 27.6146 29.8823 26.5175 29.0866L26.5214 29.0827ZM21.4482 32.718H17.2076C17.3087 32.7336 17.406 32.7531 17.4994 32.7765C17.5266 32.7765 17.5499 32.7804 17.5733 32.7921C17.6705 32.8077 17.76 32.8311 17.8573 32.8584C18.0207 32.8974 18.1841 32.9481 18.3436 33.0067C18.4564 33.0418 18.5576 33.0808 18.6665 33.1237C18.7326 33.1471 18.8027 33.1744 18.8688 33.2017C18.9544 33.2368 19.0439 33.2758 19.1295 33.3148C19.2579 33.3772 19.394 33.4435 19.5263 33.5137C19.6275 33.5644 19.7286 33.6229 19.8259 33.6776C19.8998 33.7166 19.9659 33.7634 20.0399 33.8024C20.2538 33.9272 20.4561 34.0676 20.6623 34.2158H22.8138C22.3508 33.7166 21.8995 33.2212 21.4521 32.7141L21.4482 32.718ZM27.564 24.636C26.428 23.9417 25.4126 23.0797 24.5372 22.0812C24.0509 21.539 23.6074 20.9422 23.2223 20.3142L24.5139 23.7506C24.5645 23.7896 24.6151 23.8364 24.6656 23.8754C25.8911 24.8818 26.996 26.0207 27.9531 27.2845C28.8207 28.4508 29.5949 29.7029 30.0967 31.1266C30.6336 29.4493 31.0694 27.7487 31.4 26.0168C29.945 25.8647 28.6962 25.3108 27.5601 24.636H27.564ZM26.5214 29.0827L27.8869 32.718H25.8133C25.9923 33.0652 26.1635 33.4201 26.3152 33.7829C26.3736 33.9311 26.4319 34.0715 26.4864 34.2197H28.4277L28.6806 34.9101C28.9685 34.247 29.2331 33.5722 29.4937 32.9013C29.6805 32.3982 29.8477 31.895 30.0189 31.384C28.7429 30.6702 27.6146 29.8823 26.5175 29.0866L26.5214 29.0827ZM21.4482 32.718H17.2076C17.3087 32.7336 17.406 32.7531 17.4994 32.7765C17.5266 32.7765 17.5499 32.7804 17.5733 32.7921C17.6705 32.8077 17.76 32.8311 17.8573 32.8584C18.0207 32.8974 18.1841 32.9481 18.3436 33.0067C18.4564 33.0418 18.5576 33.0808 18.6665 33.1237C18.7326 33.1471 18.8027 33.1744 18.8688 33.2017C18.9544 33.2368 19.0439 33.2758 19.1295 33.3148C19.2579 33.3772 19.394 33.4435 19.5263 33.5137C19.6275 33.5644 19.7286 33.6229 19.8259 33.6776C19.8998 33.7166 19.9659 33.7634 20.0399 33.8024C20.2538 33.9272 20.4561 34.0676 20.6623 34.2158H22.8138C22.3508 33.7166 21.8995 33.2212 21.4521 32.7141L21.4482 32.718ZM27.564 24.636C26.428 23.9417 25.4126 23.0797 24.5372 22.0812C24.0509 21.539 23.6074 20.9422 23.2223 20.3142L24.5139 23.7506C24.5645 23.7896 24.6151 23.8364 24.6656 23.8754C25.8911 24.8818 26.996 26.0207 27.9531 27.2845C28.8207 28.4508 29.5949 29.7029 30.0967 31.1266C30.6336 29.4493 31.0694 27.7487 31.4 26.0168C29.945 25.8647 28.6962 25.3108 27.5601 24.636H27.564ZM26.5214 29.0827L27.8869 32.718H25.8133C25.9923 33.0652 26.1635 33.4201 26.3152 33.7829C26.3736 33.9311 26.4319 34.0715 26.4864 34.2197H28.4277L28.6806 34.9101C28.9685 34.247 29.2331 33.5722 29.4937 32.9013C29.6805 32.3982 29.8477 31.895 30.0189 31.384C28.7429 30.6702 27.6146 29.8823 26.5175 29.0866L26.5214 29.0827ZM21.4482 32.718H17.2076C17.3087 32.7336 17.406 32.7531 17.4994 32.7765C17.5266 32.7765 17.5499 32.7804 17.5733 32.7921C17.6705 32.8077 17.76 32.8311 17.8573 32.8584C18.0207 32.8974 18.1841 32.9481 18.3436 33.0067C18.4564 33.0418 18.5576 33.0808 18.6665 33.1237C18.7326 33.1471 18.8027 33.1744 18.8688 33.2017C18.9544 33.2368 19.0439 33.2758 19.1295 33.3148C19.2579 33.3772 19.394 33.4435 19.5263 33.5137C19.6275 33.5644 19.7286 33.6229 19.8259 33.6776C19.8998 33.7166 19.9659 33.7634 20.0399 33.8024C20.2538 33.9272 20.4561 34.0676 20.6623 34.2158H22.8138C22.3508 33.7166 21.8995 33.2212 21.4521 32.7141L21.4482 32.718ZM27.564 24.636C26.428 23.9417 25.4126 23.0797 24.5372 22.0812C24.0509 21.539 23.6074 20.9422 23.2223 20.3142L24.5139 23.7506C24.5645 23.7896 24.6151 23.8364 24.6656 23.8754C25.8911 24.8818 26.996 26.0207 27.9531 27.2845C28.8207 28.4508 29.5949 29.7029 30.0967 31.1266C30.6336 29.4493 31.0694 27.7487 31.4 26.0168C29.945 25.8647 28.6962 25.3108 27.5601 24.636H27.564ZM26.5214 29.0827L27.8869 32.718H25.8133C25.9923 33.0652 26.1635 33.4201 26.3152 33.7829C26.3736 33.9311 26.4319 34.0715 26.4864 34.2197H28.4277L28.6806 34.9101C28.9685 34.247 29.2331 33.5722 29.4937 32.9013C29.6805 32.3982 29.8477 31.895 30.0189 31.384C28.7429 30.6702 27.6146 29.8823 26.5175 29.0866L26.5214 29.0827ZM21.4482 32.718H17.2076C17.3087 32.7336 17.406 32.7531 17.4994 32.7765C17.5266 32.7765 17.5499 32.7804 17.5733 32.7921C17.6705 32.8077 17.76 32.8311 17.8573 32.8584C18.0207 32.8974 18.1841 32.9481 18.3436 33.0067C18.4564 33.0418 18.5576 33.0808 18.6665 33.1237C18.7326 33.1471 18.8027 33.1744 18.8688 33.2017C18.9544 33.2368 19.0439 33.2758 19.1295 33.3148C19.2579 33.3772 19.394 33.4435 19.5263 33.5137C19.6275 33.5644 19.7286 33.6229 19.8259 33.6776C19.8998 33.7166 19.9659 33.7634 20.0399 33.8024C20.2538 33.9272 20.4561 34.0676 20.6623 34.2158H22.8138C22.3508 33.7166 21.8995 33.2212 21.4521 32.7141L21.4482 32.718ZM27.564 24.636C26.428 23.9417 25.4126 23.0797 24.5372 22.0812C24.0509 21.539 23.6074 20.9422 23.2223 20.3142L24.5139 23.7506C24.5645 23.7896 24.6151 23.8364 24.6656 23.8754C25.8911 24.8818 26.996 26.0207 27.9531 27.2845C28.8207 28.4508 29.5949 29.7029 30.0967 31.1266C30.6336 29.4493 31.0694 27.7487 31.4 26.0168C29.945 25.8647 28.6962 25.3108 27.5601 24.636H27.564ZM21.4482 32.718H17.2076C17.3087 32.7336 17.406 32.7531 17.4994 32.7765C17.5266 32.7765 17.5499 32.7804 17.5733 32.7921C17.6705 32.8077 17.76 32.8311 17.8573 32.8584C18.0207 32.8974 18.1841 32.9481 18.3436 33.0067C18.4564 33.0418 18.5576 33.0808 18.6665 33.1237C18.7326 33.1471 18.8027 33.1744 18.8688 33.2017C18.9544 33.2368 19.0439 33.2758 19.1295 33.3148C19.2579 33.3772 19.394 33.4435 19.5263 33.5137C19.6275 33.5644 19.7286 33.6229 19.8259 33.6776C19.8998 33.7166 19.9659 33.7634 20.0399 33.8024C20.2538 33.9272 20.4561 34.0676 20.6623 34.2158H22.8138C22.3508 33.7166 21.8995 33.2212 21.4521 32.7141L21.4482 32.718ZM26.5214 29.0827L27.8869 32.718H25.8133C25.9923 33.0652 26.1635 33.4201 26.3152 33.7829C26.3736 33.9311 26.4319 34.0715 26.4864 34.2197H28.4277L28.6806 34.9101C28.9685 34.247 29.2331 33.5722 29.4937 32.9013C29.6805 32.3982 29.8477 31.895 30.0189 31.384C28.7429 30.6702 27.6146 29.8823 26.5175 29.0866L26.5214 29.0827ZM27.564 24.636C26.428 23.9417 25.4126 23.0797 24.5372 22.0812C24.0509 21.539 23.6074 20.9422 23.2223 20.3142L24.5139 23.7506C24.5645 23.7896 24.6151 23.8364 24.6656 23.8754C25.8911 24.8818 26.996 26.0207 27.9531 27.2845C28.8207 28.4508 29.5949 29.7029 30.0967 31.1266C30.6336 29.4493 31.0694 27.7487 31.4 26.0168C29.945 25.8647 28.6962 25.3108 27.5601 24.636H27.564ZM39.6751 27.6239C39.5623 27.737 39.4495 27.8462 39.3366 27.9515C38.0956 29.1139 36.6989 30.0812 35.1699 30.8028C33.6954 31.4815 32.1081 32.0042 30.3418 32.0315C30.2329 32.3826 30.1162 32.7336 29.9956 33.0769C29.6727 33.9545 29.3342 34.8243 28.9685 35.6863L29.3186 36.6381C30.1979 35.9984 31.0616 35.4484 31.933 34.9218C33.2986 34.1027 34.6369 33.3577 35.9869 32.6634C37.3369 31.9691 38.6519 31.2748 40.0408 30.6039C40.282 30.4869 40.5193 30.366 40.7644 30.249L39.6751 27.6239ZM27.9531 27.2845C28.8207 28.4508 29.5949 29.7029 30.0967 31.1266C30.6336 29.4493 31.0694 27.7487 31.4 26.0168C29.945 25.8647 28.6962 25.3108 27.5601 24.636C26.4241 23.9417 25.4087 23.0797 24.5334 22.0812C24.047 21.539 23.6035 20.9422 23.2184 20.3142L24.51 23.7506C24.5606 23.7896 24.6112 23.8364 24.6617 23.8754C25.8872 24.8818 26.9921 26.0207 27.9492 27.2845H27.9531ZM30.0189 31.384C28.7429 30.6702 27.6146 29.8823 26.5175 29.0866L27.8831 32.7219H25.8094C25.9884 33.0691 26.1596 33.424 26.3113 33.7868C26.3697 33.935 26.428 34.0754 26.4825 34.2236H28.4238L28.6767 34.914C28.9646 34.2509 29.2292 33.5761 29.4898 32.9052C29.6766 32.4021 29.8439 31.8989 30.015 31.3879L30.0189 31.384ZM17.2076 32.718C17.3087 32.7336 17.406 32.7531 17.4994 32.7765C17.5266 32.7765 17.5499 32.7804 17.5733 32.7921C17.6705 32.8077 17.76 32.8311 17.8573 32.8584C18.0207 32.8974 18.1841 32.9481 18.3436 33.0067C18.4564 33.0418 18.5576 33.0808 18.6665 33.1237C18.7326 33.1471 18.8027 33.1744 18.8688 33.2017C18.9544 33.2368 19.0439 33.2758 19.1295 33.3148C19.2579 33.3772 19.394 33.4435 19.5263 33.5137C19.6275 33.5644 19.7286 33.6229 19.8259 33.6776C19.8998 33.7166 19.9659 33.7556 20.0399 33.8024C20.2538 33.9272 20.4561 34.0676 20.6623 34.2158H22.8138C22.3508 33.7166 21.8995 33.2212 21.4521 32.7141H17.2115L17.2076 32.718ZM27.564 24.636C26.428 23.9417 25.4126 23.0797 24.5372 22.0812C24.0509 21.539 23.6074 20.9422 23.2223 20.3142L24.5139 23.7506C24.5645 23.7896 24.6151 23.8364 24.6656 23.8754C25.8911 24.8818 26.996 26.0207 27.9531 27.2845C28.8207 28.4508 29.5949 29.7029 30.0967 31.1266C30.6336 29.4493 31.0694 27.7487 31.4 26.0168C29.945 25.8647 28.6962 25.3108 27.5601 24.636H27.564ZM26.5214 29.0827L27.8869 32.718H25.8133C25.9923 33.0652 26.1635 33.4201 26.3152 33.7829C26.3736 33.9311 26.4319 34.0715 26.4864 34.2197H28.4277L28.6806 34.9101C28.9685 34.247 29.2331 33.5722 29.4937 32.9013C29.6805 32.3982 29.8477 31.895 30.0189 31.384C28.7429 30.6702 27.6146 29.8823 26.5175 29.0866L26.5214 29.0827ZM21.4482 32.718H17.2076C17.3087 32.7336 17.406 32.7531 17.4994 32.7765C17.5266 32.7765 17.5499 32.7804 17.5733 32.7921C17.6705 32.8077 17.76 32.8311 17.8573 32.8584C18.0207 32.8974 18.1841 32.9481 18.3436 33.0067C18.4564 33.0418 18.5576 33.0808 18.6665 33.1237C18.7326 33.1471 18.8027 33.1744 18.8688 33.2017C18.9544 33.2368 19.0439 33.2758 19.1295 33.3148C19.2579 33.3772 19.394 33.4435 19.5263 33.5137C19.6275 33.5644 19.7286 33.6229 19.8259 33.6776C19.8998 33.7166 19.9659 33.7634 20.0399 33.8024C20.2538 33.9272 20.4561 34.0676 20.6623 34.2158H22.8138C22.3508 33.7166 21.8995 33.2212 21.4521 32.7141L21.4482 32.718ZM27.564 24.636C26.428 23.9417 25.4126 23.0797 24.5372 22.0812C24.0509 21.539 23.6074 20.9422 23.2223 20.3142L24.5139 23.7506C24.5645 23.7896 24.6151 23.8364 24.6656 23.8754C25.8911 24.8818 26.996 26.0207 27.9531 27.2845C28.8207 28.4508 29.5949 29.7029 30.0967 31.1266C30.6336 29.4493 31.0694 27.7487 31.4 26.0168C29.945 25.8647 28.6962 25.3108 27.5601 24.636H27.564ZM26.5214 29.0827L27.8869 32.718H25.8133C25.9923 33.0652 26.1635 33.4201 26.3152 33.7829C26.3736 33.9311 26.4319 34.0715 26.4864 34.2197H28.4277L28.6806 34.9101C28.9685 34.247 29.2331 33.5722 29.4937 32.9013C29.6805 32.3982 29.8477 31.895 30.0189 31.384C28.7429 30.6702 27.6146 29.8823 26.5175 29.0866L26.5214 29.0827ZM21.4482 32.718H17.2076C17.3087 32.7336 17.406 32.7531 17.4994 32.7765C17.5266 32.7765 17.5499 32.7804 17.5733 32.7921C17.6705 32.8077 17.76 32.8311 17.8573 32.8584C18.0207 32.8974 18.1841 32.9481 18.3436 33.0067C18.4564 33.0418 18.5576 33.0808 18.6665 33.1237C18.7326 33.1471 18.8027 33.1744 18.8688 33.2017C18.9544 33.2368 19.0439 33.2758 19.1295 33.3148C19.2579 33.3772 19.394 33.4435 19.5263 33.5137C19.6275 33.5644 19.7286 33.6229 19.8259 33.6776C19.8998 33.7166 19.9659 33.7634 20.0399 33.8024C20.2538 33.9272 20.4561 34.0676 20.6623 34.2158H22.8138C22.3508 33.7166 21.8995 33.2212 21.4521 32.7141L21.4482 32.718ZM27.564 24.636C26.428 23.9417 25.4126 23.0797 24.5372 22.0812C24.0509 21.539 23.6074 20.9422 23.2223 20.3142L24.5139 23.7506C24.5645 23.7896 24.6151 23.8364 24.6656 23.8754C25.8911 24.8818 26.996 26.0207 27.9531 27.2845C28.8207 28.4508 29.5949 29.7029 30.0967 31.1266C30.6336 29.4493 31.0694 27.7487 31.4 26.0168C29.945 25.8647 28.6962 25.3108 27.5601 24.636H27.564ZM26.5214 29.0827L27.8869 32.718H25.8133C25.9923 33.0652 26.1635 33.4201 26.3152 33.7829C26.3736 33.9311 26.4319 34.0715 26.4864 34.2197H28.4277L28.6806 34.9101C28.9685 34.247 29.2331 33.5722 29.4937 32.9013C29.6805 32.3982 29.8477 31.895 30.0189 31.384C28.7429 30.6702 27.6146 29.8823 26.5175 29.0866L26.5214 29.0827ZM21.4482 32.718H17.2076C17.3087 32.7336 17.406 32.7531 17.4994 32.7765C17.5266 32.7765 17.5499 32.7804 17.5733 32.7921C17.6705 32.8077 17.76 32.8311 17.8573 32.8584C18.0207 32.8974 18.1841 32.9481 18.3436 33.0067C18.4564 33.0418 18.5576 33.0808 18.6665 33.1237C18.7326 33.1471 18.8027 33.1744 18.8688 33.2017C18.9544 33.2368 19.0439 33.2758 19.1295 33.3148C19.2579 33.3772 19.394 33.4435 19.5263 33.5137C19.6275 33.5644 19.7286 33.6229 19.8259 33.6776C19.8998 33.7166 19.9659 33.7634 20.0399 33.8024C20.2538 33.9272 20.4561 34.0676 20.6623 34.2158H22.8138C22.3508 33.7166 21.8995 33.2212 21.4521 32.7141L21.4482 32.718ZM27.564 24.636C26.428 23.9417 25.4126 23.0797 24.5372 22.0812C24.0509 21.539 23.6074 20.9422 23.2223 20.3142L24.5139 23.7506C24.5645 23.7896 24.6151 23.8364 24.6656 23.8754C25.8911 24.8818 26.996 26.0207 27.9531 27.2845C28.8207 28.4508 29.5949 29.7029 30.0967 31.1266C30.6336 29.4493 31.0694 27.7487 31.4 26.0168C29.945 25.8647 28.6962 25.3108 27.5601 24.636H27.564ZM26.5214 29.0827L27.8869 32.718H25.8133C25.9923 33.0652 26.1635 33.4201 26.3152 33.7829C26.3736 33.9311 26.4319 34.0715 26.4864 34.2197H28.4277L28.6806 34.9101C28.9685 34.247 29.2331 33.5722 29.4937 32.9013C29.6805 32.3982 29.8477 31.895 30.0189 31.384C28.7429 30.6702 27.6146 29.8823 26.5175 29.0866L26.5214 29.0827ZM21.4482 32.718H17.2076C17.3087 32.7336 17.406 32.7531 17.4994 32.7765C17.5266 32.7765 17.5499 32.7804 17.5733 32.7921C17.6705 32.8077 17.76 32.8311 17.8573 32.8584C18.0207 32.8974 18.1841 32.9481 18.3436 33.0067C18.4564 33.0418 18.5576 33.0808 18.6665 33.1237C18.7326 33.1471 18.8027 33.1744 18.8688 33.2017C18.9544 33.2368 19.0439 33.2758 19.1295 33.3148C19.2579 33.3772 19.394 33.4435 19.5263 33.5137C19.6275 33.5644 19.7286 33.6229 19.8259 33.6776C19.8998 33.7166 19.9659 33.7634 20.0399 33.8024C20.2538 33.9272 20.4561 34.0676 20.6623 34.2158H22.8138C22.3508 33.7166 21.8995 33.2212 21.4521 32.7141L21.4482 32.718ZM27.564 24.636C26.428 23.9417 25.4126 23.0797 24.5372 22.0812C24.0509 21.539 23.6074 20.9422 23.2223 20.3142L24.5139 23.7506C24.5645 23.7896 24.6151 23.8364 24.6656 23.8754C25.8911 24.8818 26.996 26.0207 27.9531 27.2845C28.8207 28.4508 29.5949 29.7029 30.0967 31.1266C30.6336 29.4493 31.0694 27.7487 31.4 26.0168C29.945 25.8647 28.6962 25.3108 27.5601 24.636H27.564ZM26.5214 29.0827L27.8869 32.718H25.8133C25.9923 33.0652 26.1635 33.4201 26.3152 33.7829C26.3736 33.9311 26.4319 34.0715 26.4864 34.2197H28.4277L28.6806 34.9101C28.9685 34.247 29.2331 33.5722 29.4937 32.9013C29.6805 32.3982 29.8477 31.895 30.0189 31.384C28.7429 30.6702 27.6146 29.8823 26.5175 29.0866L26.5214 29.0827ZM21.4482 32.718H17.2076C17.3087 32.7336 17.406 32.7531 17.4994 32.7765C17.5266 32.7765 17.5499 32.7804 17.5733 32.7921C17.6705 32.8077 17.76 32.8311 17.8573 32.8584C18.0207 32.8974 18.1841 32.9481 18.3436 33.0067C18.4564 33.0418 18.5576 33.0808 18.6665 33.1237C18.7326 33.1471 18.8027 33.1744 18.8688 33.2017C18.9544 33.2368 19.0439 33.2758 19.1295 33.3148C19.2579 33.3772 19.394 33.4435 19.5263 33.5137C19.6275 33.5644 19.7286 33.6229 19.8259 33.6776C19.8998 33.7166 19.9659 33.7634 20.0399 33.8024C20.2538 33.9272 20.4561 34.0676 20.6623 34.2158H22.8138C22.3508 33.7166 21.8995 33.2212 21.4521 32.7141L21.4482 32.718ZM27.564 24.636C26.428 23.9417 25.4126 23.0797 24.5372 22.0812C24.0509 21.539 23.6074 20.9422 23.2223 20.3142L24.5139 23.7506C24.5645 23.7896 24.6151 23.8364 24.6656 23.8754C25.8911 24.8818 26.996 26.0207 27.9531 27.2845C28.8207 28.4508 29.5949 29.7029 30.0967 31.1266C30.6336 29.4493 31.0694 27.7487 31.4 26.0168C29.945 25.8647 28.6962 25.3108 27.5601 24.636H27.564ZM26.5214 29.0827L27.8869 32.718H25.8133C25.9923 33.0652 26.1635 33.4201 26.3152 33.7829C26.3736 33.9311 26.4319 34.0715 26.4864 34.2197H28.4277L28.6806 34.9101C28.9685 34.247 29.2331 33.5722 29.4937 32.9013C29.6805 32.3982 29.8477 31.895 30.0189 31.384C28.7429 30.6702 27.6146 29.8823 26.5175 29.0866L26.5214 29.0827ZM21.4482 32.718H17.2076C17.3087 32.7336 17.406 32.7531 17.4994 32.7765C17.5266 32.7765 17.5499 32.7804 17.5733 32.7921C17.6705 32.8077 17.76 32.8311 17.8573 32.8584C18.0207 32.8974 18.1841 32.9481 18.3436 33.0067C18.4564 33.0418 18.5576 33.0808 18.6665 33.1237C18.7326 33.1471 18.8027 33.1744 18.8688 33.2017C18.9544 33.2368 19.0439 33.2758 19.1295 33.3148C19.2579 33.3772 19.394 33.4435 19.5263 33.5137C19.6275 33.5644 19.7286 33.6229 19.8259 33.6776C19.8998 33.7166 19.9659 33.7634 20.0399 33.8024C20.2538 33.9272 20.4561 34.0676 20.6623 34.2158H22.8138C22.3508 33.7166 21.8995 33.2212 21.4521 32.7141L21.4482 32.718ZM27.564 24.636C26.428 23.9417 25.4126 23.0797 24.5372 22.0812C24.0509 21.539 23.6074 20.9422 23.2223 20.3142L24.5139 23.7506C24.5645 23.7896 24.6151 23.8364 24.6656 23.8754C25.8911 24.8818 26.996 26.0207 27.9531 27.2845C28.8207 28.4508 29.5949 29.7029 30.0967 31.1266C30.6336 29.4493 31.0694 27.7487 31.4 26.0168C29.945 25.8647 28.6962 25.3108 27.5601 24.636H27.564ZM26.5214 29.0827L27.8869 32.718H25.8133C25.9923 33.0652 26.1635 33.4201 26.3152 33.7829C26.3736 33.9311 26.4319 34.0715 26.4864 34.2197H28.4277L28.6806 34.9101C28.9685 34.247 29.2331 33.5722 29.4937 32.9013C29.6805 32.3982 29.8477 31.895 30.0189 31.384C28.7429 30.6702 27.6146 29.8823 26.5175 29.0866L26.5214 29.0827ZM21.4482 32.718H17.2076C17.3087 32.7336 17.406 32.7531 17.4994 32.7765C17.5266 32.7765 17.5499 32.7804 17.5733 32.7921C17.6705 32.8077 17.76 32.8311 17.8573 32.8584C18.0207 32.8974 18.1841 32.9481 18.3436 33.0067C18.4564 33.0418 18.5576 33.0808 18.6665 33.1237C18.7326 33.1471 18.8027 33.1744 18.8688 33.2017C18.9544 33.2368 19.0439 33.2758 19.1295 33.3148C19.2579 33.3772 19.394 33.4435 19.5263 33.5137C19.6275 33.5644 19.7286 33.6229 19.8259 33.6776C19.8998 33.7166 19.9659 33.7634 20.0399 33.8024C20.2538 33.9272 20.4561 34.0676 20.6623 34.2158H22.8138C22.3508 33.7166 21.8995 33.2212 21.4521 32.7141L21.4482 32.718ZM27.564 24.636C26.428 23.9417 25.4126 23.0797 24.5372 22.0812C24.0509 21.539 23.6074 20.9422 23.2223 20.3142L24.5139 23.7506C24.5645 23.7896 24.6151 23.8364 24.6656 23.8754C25.8911 24.8818 26.996 26.0207 27.9531 27.2845C28.8207 28.4508 29.5949 29.7029 30.0967 31.1266C30.6336 29.4493 31.0694 27.7487 31.4 26.0168C29.945 25.8647 28.6962 25.3108 27.5601 24.636H27.564ZM26.5214 29.0827L27.8869 32.718H25.8133C25.9923 33.0652 26.1635 33.4201 26.3152 33.7829C26.3736 33.9311 26.4319 34.0715 26.4864 34.2197H28.4277L28.6806 34.9101C28.9685 34.247 29.2331 33.5722 29.4937 32.9013C29.6805 32.3982 29.8477 31.895 30.0189 31.384C28.7429 30.6702 27.6146 29.8823 26.5175 29.0866L26.5214 29.0827ZM21.4482 32.718H17.2076C17.3087 32.7336 17.406 32.7531 17.4994 32.7765C17.5266 32.7765 17.5499 32.7804 17.5733 32.7921C17.6705 32.8077 17.76 32.8311 17.8573 32.8584C18.0207 32.8974 18.1841 32.9481 18.3436 33.0067C18.4564 33.0418 18.5576 33.0808 18.6665 33.1237C18.7326 33.1471 18.8027 33.1744 18.8688 33.2017C18.9544 33.2368 19.0439 33.2758 19.1295 33.3148C19.2579 33.3772 19.394 33.4435 19.5263 33.5137C19.6275 33.5644 19.7286 33.6229 19.8259 33.6776C19.8998 33.7166 19.9659 33.7634 20.0399 33.8024C20.2538 33.9272 20.4561 34.0676 20.6623 34.2158H22.8138C22.3508 33.7166 21.8995 33.2212 21.4521 32.7141L21.4482 32.718ZM21.4482 32.718H17.2076C17.3087 32.7336 17.406 32.7531 17.4994 32.7765C17.5266 32.7765 17.5499 32.7804 17.5733 32.7921C17.6705 32.8077 17.76 32.8311 17.8573 32.8584C18.0207 32.8974 18.1841 32.9481 18.3436 33.0067C18.4564 33.0418 18.5576 33.0808 18.6665 33.1237C18.7326 33.1471 18.8027 33.1744 18.8688 33.2017C18.9544 33.2368 19.0439 33.2758 19.1295 33.3148C19.2579 33.3772 19.394 33.4435 19.5263 33.5137C19.6275 33.5644 19.7286 33.6229 19.8259 33.6776C19.8998 33.7166 19.9659 33.7634 20.0399 33.8024C20.2538 33.9272 20.4561 34.0676 20.6623 34.2158H22.8138C22.3508 33.7166 21.8995 33.2212 21.4521 32.7141L21.4482 32.718ZM21.4482 32.718H17.2076C17.3087 32.7336 17.406 32.7531 17.4994 32.7765C17.5266 32.7765 17.5499 32.7804 17.5733 32.7921C17.6705 32.8077 17.76 32.8311 17.8573 32.8584C18.0207 32.8974 18.1841 32.9481 18.3436 33.0067C18.4564 33.0418 18.5576 33.0808 18.6665 33.1237C18.7326 33.1471 18.8027 33.1744 18.8688 33.2017C18.9544 33.2368 19.0439 33.2758 19.1295 33.3148C19.2579 33.3772 19.394 33.4435 19.5263 33.5137C19.6275 33.5644 19.7286 33.6229 19.8259 33.6776C19.8998 33.7166 19.9659 33.7634 20.0399 33.8024C20.2538 33.9272 20.4561 34.0676 20.6623 34.2158H22.8138C22.3508 33.7166 21.8995 33.2212 21.4521 32.7141L21.4482 32.718ZM21.4482 32.718H17.2076C17.3087 32.7336 17.406 32.7531 17.4994 32.7765C17.5266 32.7765 17.5499 32.7804 17.5733 32.7921C17.6705 32.8077 17.76 32.8311 17.8573 32.8584C18.0207 32.8974 18.1841 32.9481 18.3436 33.0067C18.4564 33.0418 18.5576 33.0808 18.6665 33.1237C18.7326 33.1471 18.8027 33.1744 18.8688 33.2017C18.9544 33.2368 19.0439 33.2758 19.1295 33.3148C19.2579 33.3772 19.394 33.4435 19.5263 33.5137C19.6275 33.5644 19.7286 33.6229 19.8259 33.6776C19.8998 33.7166 19.9659 33.7634 20.0399 33.8024C20.2538 33.9272 20.4561 34.0676 20.6623 34.2158H22.8138C22.3508 33.7166 21.8995 33.2212 21.4521 32.7141L21.4482 32.718ZM21.4482 32.718H17.2076C17.3087 32.7336 17.406 32.7531 17.4994 32.7765C17.5266 32.7765 17.5499 32.7804 17.5733 32.7921C17.6705 32.8077 17.76 32.8311 17.8573 32.8584C18.0207 32.8974 18.1841 32.9481 18.3436 33.0067C18.4564 33.0418 18.5576 33.0808 18.6665 33.1237C18.7326 33.1471 18.8027 33.1744 18.8688 33.2017C18.9544 33.2368 19.0439 33.2758 19.1295 33.3148C19.2579 33.3772 19.394 33.4435 19.5263 33.5137C19.6275 33.5644 19.7286 33.6229 19.8259 33.6776C19.8998 33.7166 19.9659 33.7634 20.0399 33.8024C20.2538 33.9272 20.4561 34.0676 20.6623 34.2158H22.8138C22.3508 33.7166 21.8995 33.2212 21.4521 32.7141L21.4482 32.718ZM48.2108 45.6913C47.6 45.2155 46.6507 44.4002 45.9738 42.84L42.0989 33.4903C40.9395 34.7736 39.5506 35.8502 38.0411 36.6264C36.4771 37.4377 34.7964 37.9838 33.0652 38.2334C32.0381 38.3699 30.9915 38.4246 29.9372 38.3231L30.976 41.1237C31.474 41.0067 31.9758 40.9014 32.4894 40.8234C33.8121 40.6362 35.201 40.5621 36.66 40.9521C35.6368 42.0521 34.598 42.8556 33.5048 43.5616C32.8668 43.9712 32.217 44.3378 31.5518 44.6655C31.3378 45.1179 30.976 45.4027 30.6609 45.6211C29.9839 46.097 29.5093 46.5026 29.5093 47.0487C29.5093 47.6611 29.9839 48.0668 30.5947 48.0668H48.0085C48.6193 48.0668 49.0239 47.6572 49.0239 47.0487C49.0239 46.5729 48.7516 46.1672 48.2108 45.6913ZM21.4482 32.718H17.2076C17.3087 32.7336 17.406 32.7531 17.4994 32.7765C17.5266 32.7765 17.5499 32.7804 17.5733 32.7921C17.6705 32.8077 17.76 32.8311 17.8573 32.8584C18.0207 32.8974 18.1841 32.9481 18.3436 33.0067C18.4564 33.0418 18.5576 33.0808 18.6665 33.1237C18.7326 33.1471 18.8027 33.1744 18.8688 33.2017C18.9544 33.2368 19.0439 33.2758 19.1295 33.3148C19.2579 33.3772 19.394 33.4435 19.5263 33.5137C19.6275 33.5644 19.7286 33.6229 19.8259 33.6776C19.8998 33.7166 19.9659 33.7634 20.0399 33.8024C20.2538 33.9272 20.4561 34.0676 20.6623 34.2158H22.8138C22.3508 33.7166 21.8995 33.2212 21.4521 32.7141L21.4482 32.718ZM21.4482 32.718H17.2076C17.3087 32.7336 17.406 32.7531 17.4994 32.7765C17.5266 32.7765 17.5499 32.7804 17.5733 32.7921C17.6705 32.8077 17.76 32.8311 17.8573 32.8584C18.0207 32.8974 18.1841 32.9481 18.3436 33.0067C18.4564 33.0418 18.5576 33.0808 18.6665 33.1237C18.7326 33.1471 18.8027 33.1744 18.8688 33.2017C18.9544 33.2368 19.0439 33.2758 19.1295 33.3148C19.2579 33.3772 19.394 33.4435 19.5263 33.5137C19.6275 33.5644 19.7286 33.6229 19.8259 33.6776C19.8998 33.7166 19.9659 33.7634 20.0399 33.8024C20.2538 33.9272 20.4561 34.0676 20.6623 34.2158H22.8138C22.3508 33.7166 21.8995 33.2212 21.4521 32.7141L21.4482 32.718Z" fill="#FFF8DC"/>
<path d="M95.628 38.4168V14.5764H92.714C92.4417 14.5764 92.1732 14.4399 92.1732 14.1006C92.1732 13.6247 92.6479 13.4219 94.0718 13.219C99.6935 12.3375 104.572 9.61882 106.401 4.93033C107.012 3.3662 107.28 2.82402 107.825 2.82402C108.229 2.82402 108.502 3.09706 108.502 3.57293V12.7432H116.022C116.633 12.7432 116.971 13.1488 116.971 13.6949C116.971 14.3073 116.633 14.5764 116.022 14.5764H108.502V39.9809C108.502 41.8142 109.587 42.9024 111.346 42.9024C112.769 42.9024 114.189 42.1574 115.139 41.3383C115.816 40.7961 116.088 40.5933 116.356 40.5933C116.625 40.5933 116.765 40.7961 116.765 41.1355C116.765 43.7839 112.225 48.0629 105.926 48.0629C99.6274 48.0629 95.628 44.1896 95.628 38.4168Z" fill="#FFF8DC"/>
<path d="M121.807 29.7575C121.807 18.8905 129.191 11.7563 140.439 11.7563C151.686 11.7563 159 18.8866 159 29.7575C159 40.6284 151.616 47.7586 140.439 47.7586C129.261 47.7586 121.807 40.6284 121.807 29.7575ZM146.333 35.3275C146.333 27.3118 144.096 12.6418 138.878 12.6418C135.762 12.6418 134.544 17.8724 134.544 24.1875C134.544 32.406 136.711 46.8732 141.999 46.8732C144.574 46.8732 146.333 43.1364 146.333 35.3275Z" fill="#FFF8DC"/>
<path d="M0 101.115C0 100.709 0.272334 100.366 0.610805 100.026C1.15158 99.4841 1.62622 98.938 1.62622 97.7835V71.7667C1.62622 70.7486 1.15158 70.2025 0.676943 69.594C0.272334 69.1182 0 68.7788 0 68.3029C0 67.7608 0.4085 67.3512 1.01542 67.3512H11.7181C13.4105 67.3512 14.4959 68.3693 14.4959 70.0699V73.7364C17.0714 69.3912 21.2031 66.6725 25.7433 66.6725C31.7735 66.6725 36.2437 70.339 36.2437 76.9973V97.7835C36.2437 98.938 36.7183 99.4802 37.2591 100.026C37.5976 100.366 37.8699 100.705 37.8699 101.115C37.8699 101.657 37.5315 101.996 36.9907 101.996H22.6971C22.1563 101.996 21.8178 101.657 21.8178 101.115C21.8178 100.709 22.0901 100.366 22.4286 100.026C22.9033 99.4841 23.3779 98.938 23.3779 97.7835V76.3186C23.3779 73.8067 21.7517 72.1762 19.3824 72.1762C17.3476 72.1762 15.6553 73.3308 14.5037 75.1641V97.7835C14.5037 98.938 14.9783 99.4802 15.5191 100.026C15.7915 100.366 16.0599 100.705 16.0599 101.115C16.0599 101.657 15.7876 101.996 15.1806 101.996H0.949277C0.338472 101.996 0 101.657 0 101.115Z" fill="#FFF8DC"/>
<path d="M39.321 72.1294C39.321 61.2624 46.7052 54.1283 57.7502 54.1283C65.9475 54.1283 71.8416 58.0015 71.8416 63.6379C71.8416 70.499 63.1697 73.284 53.1439 73.6896C54.5678 78.6473 57.5479 83.0627 62.9674 83.0627C67.0991 83.0627 69.7407 80.8901 70.8261 79.6653C71.3669 78.9866 71.5692 78.7838 71.8416 78.7838C72.18 78.7838 72.3823 79.1231 72.3823 80.1412C72.3823 84.8297 66.7606 90.1267 57.3417 90.1267C46.5029 90.1267 39.321 82.9964 39.321 72.1255V72.1294ZM52.9377 72.9446C58.5595 72.1294 60.5242 68.5292 60.5242 63.7081C60.5242 58.887 59.0341 54.9474 56.5286 54.9474C53.3462 54.9474 52.0585 60.3809 52.0585 65.7481C52.0585 67.8544 52.3308 70.4366 52.9377 72.9485V72.9446Z" fill="#FFF8DC"/>
<path d="M123.126 92.6932C123.126 83.796 134.101 81.2138 143.181 81.011V73.8106C143.181 68.2405 141.217 66.5438 138.98 66.5438C136.202 66.5438 135.661 69.4653 135.116 73.7442C134.778 76.4629 133.965 79.3806 129.627 79.3806C126.036 79.3806 124.274 77.2743 124.274 74.6258C124.274 69.5979 130.37 65.7286 139.719 65.7286C149.068 65.7286 156.047 69.3951 156.047 78.5654V96.2935C156.047 97.6509 156.522 98.0604 157.063 98.3998C157.467 98.6026 157.673 98.8756 157.673 99.2813C157.673 100.436 155.506 101.727 151.982 101.727C147.986 101.727 145.072 100.097 143.85 96.9058C141.345 99.9639 137.754 101.727 133.552 101.727C127.386 101.727 123.118 98.2632 123.118 92.6932H123.126ZM141.283 96.6289C142.162 96.6289 142.909 96.3559 143.586 96.0165C143.314 95.0648 143.181 94.113 143.181 92.9585V82.9067C142.504 82.3645 141.621 81.955 140.54 81.955C137.626 81.955 135.525 84.3343 135.525 88.4767C135.525 93.2978 138.166 96.6289 141.283 96.6289Z" fill="#FFF8DC"/>
<path d="M90.8193 101.017C90.8193 101.622 90.5431 102 89.9284 102H75.5959C74.9773 102 74.6388 101.622 74.6388 101.017C74.6388 100.557 74.9112 100.178 75.2535 99.7962C75.7982 99.1955 76.2767 98.5831 76.2767 97.292V53.746H76.2806C76.2456 48.5465 76.2067 43.979 76.2067 43.8034V22.3425C76.2067 19.8266 74.5805 18.1923 72.2112 18.1923C70.1765 18.1923 68.4841 19.3507 67.3325 21.1879V43.8034C67.3325 44.958 67.8072 45.5041 68.3479 46.0463C68.6203 46.3856 68.8887 46.7211 68.8887 47.1345C68.8887 47.6728 68.6203 48.0161 68.0095 48.0161H53.782C53.1712 48.0161 52.8327 47.6728 52.8327 47.1345C52.8327 46.7211 53.105 46.3856 53.4435 46.0463C53.9843 45.5041 54.4589 44.958 54.4589 43.8034V17.7905C54.4589 16.7686 53.9843 16.2264 53.5096 15.614C53.105 15.142 52.8327 14.8027 52.8327 14.3229C52.8327 13.7807 53.2373 13.3712 53.8481 13.3712H64.5547C66.2471 13.3712 67.3325 14.3892 67.3325 16.086V19.7603C69.9041 15.4112 74.0397 12.6964 78.5799 12.6964C84.6062 12.6964 89.0803 16.3629 89.0803 23.0173L89.2554 54.2726H89.2476V97.292C89.2476 98.5831 89.7261 99.1955 90.2708 99.7962C90.5431 100.178 90.8193 100.557 90.8193 101.017Z" fill="#FFF8DC"/>
<path d="M28.6806 34.9101L28.9685 35.6902C28.7078 36.3065 28.4394 36.9228 28.1515 37.5313C28.0892 37.66 28.027 37.7926 27.9647 37.9214C27.7741 38.327 27.5679 38.7327 27.3656 39.1266C26.3385 41.0496 25.2375 42.9492 23.977 44.7318C23.9731 44.7435 23.9614 44.7552 23.9537 44.7669C23.5179 45.4027 23.0666 46.0229 22.5998 46.6392C20.4328 49.5373 17.9934 52.2443 15.3713 54.7445L14.7332 54.0658C17.9156 51.117 20.8374 47.8795 23.3545 44.3456C23.6463 43.94 23.9342 43.5304 24.2182 43.113C24.3466 42.9258 24.4711 42.7347 24.5956 42.5396C25.3815 41.3344 26.109 40.0901 26.8015 38.8263C26.8637 38.7132 26.9182 38.6001 26.9804 38.487C27.0427 38.3699 27.1049 38.2451 27.1672 38.1242C27.708 37.071 28.2098 35.9945 28.6728 34.9101H28.6806Z" fill="#FFF8DC"/>
<path d="M31.7151 3.31548C31.6607 4.74309 31.1899 5.97178 30.9409 6.52566L30.6297 5.76895V5.76504V5.75334C30.7814 3.98248 31.2561 2.98394 31.1899 0.249634C31.4195 1.26768 31.7618 2.28183 31.7151 3.31939V3.31548Z" fill="#FFF8DC"/>
<path d="M21.6583 16.1484L23.2183 20.2986C22.9032 19.7993 22.627 19.2727 22.3897 18.7306C22.0356 17.927 21.775 17.0611 21.6622 16.1484H21.6583Z" fill="#FFF8DC"/>
<path d="M24.5139 23.7584L26.5175 29.0866C26.4513 29.0398 26.3813 28.9891 26.3152 28.9384C25.1013 28.0373 23.9381 27.1207 22.7904 26.1806C21.6505 25.2484 20.5223 24.3201 19.3901 23.3449C18.2619 22.3698 17.1103 21.4297 15.9237 20.2752C17.5655 20.2752 19.1528 20.712 20.6195 21.3556C22.0123 21.9914 23.3312 22.7988 24.51 23.7506L24.5139 23.7584Z" fill="#FFF8DC"/>
<path d="M25.8133 32.718H21.4482C21.2848 32.5386 21.1253 32.3514 20.9619 32.1641C20.0087 31.0993 19.0984 29.9915 18.1802 28.8252C17.7406 28.2207 17.2582 27.6473 16.8419 26.992C16.4023 26.3484 15.9548 25.697 15.5814 24.913C16.4178 25.03 17.2076 25.264 17.9623 25.5488C18.6976 25.8647 19.4368 26.2002 20.106 26.6292C21.4677 27.46 22.6854 28.5132 23.7475 29.7146C24.5372 30.6312 25.2375 31.6376 25.8094 32.7219L25.8133 32.718Z" fill="#FFF8DC"/>
<path d="M27.175 38.1242C27.1711 38.288 27.1517 38.4518 27.1283 38.6235C27.0777 38.5767 27.031 38.5338 26.9883 38.487C25.8289 37.3714 24.8368 36.3767 23.8642 35.3509C23.5102 34.9725 23.1522 34.5981 22.8099 34.2197H26.4864C26.9493 35.4484 27.2606 36.7629 27.175 38.1242Z" fill="#FFF8DC"/>
<path d="M17.2076 32.718H15.7525C15.737 32.6907 15.7175 32.6556 15.702 32.6205C16.2155 32.5971 16.7252 32.6244 17.2076 32.718Z" fill="#FFF8DC"/>
<path d="M24.5995 42.5396C24.5606 42.7893 24.5022 43.0428 24.4283 43.2925C24.3544 43.23 24.2882 43.1754 24.2182 43.113C23.2573 42.2822 22.4947 41.5216 21.775 40.7571C21.0086 39.9419 20.32 39.1344 19.6352 38.3231C18.9505 37.5079 18.3203 36.6537 17.6472 35.7605C17.3087 35.2612 16.9547 34.7697 16.6046 34.2197H20.6584C21.3432 34.719 21.9579 35.308 22.4986 35.9594C23.3234 36.9501 23.9381 38.1086 24.3155 39.349C24.6073 40.3553 24.7668 41.4397 24.5995 42.5435V42.5396Z" fill="#FFF8DC"/>
<path d="M31.5557 44.6694C31.0771 44.9073 30.5831 45.1218 30.089 45.3247C28.9024 45.8005 27.673 46.1672 26.3852 46.4168C25.187 46.6392 23.9576 46.7679 22.6037 46.6392C22.4909 46.6353 22.3819 46.6236 22.2691 46.6041C22.7904 45.8746 23.3662 45.2701 23.9809 44.7318C24.3933 44.3768 24.8213 44.0453 25.257 43.7371C26.3463 42.9804 27.4979 42.368 28.7078 41.8766C29.4431 41.5762 30.2057 41.3266 30.9838 41.1276L31.4117 42.2978C31.8475 43.4173 31.7969 44.1545 31.5596 44.6694H31.5557Z" fill="#FFF8DC"/>
<path d="M29.3186 36.642L29.9411 38.3231C29.2875 38.2568 28.6261 38.132 27.9647 37.9214C27.8986 37.898 27.8247 37.8746 27.7546 37.8551C27.883 37.742 28.0192 37.6327 28.1515 37.5313C28.5483 37.2076 28.9296 36.915 29.3186 36.642Z" fill="#FFF8DC"/>
<path d="M44.5537 28.443C44.3009 30.2997 43.4061 31.9769 42.235 33.346C42.1883 33.3967 42.1494 33.4435 42.1066 33.4864L40.7683 30.2489C41.9277 29.6717 43.1065 29.0593 44.5576 28.443H44.5537Z" fill="#FFF8DC"/>
<path d="M42.4257 23.8637C41.702 25.2601 40.7644 26.5356 39.6751 27.6239L37.8621 23.2552C38.4418 22.7325 39.037 22.2255 39.6556 21.7145C40.8422 20.7394 42.0172 19.7564 43.5617 18.7189C43.6978 20.5521 43.196 22.3074 42.4218 23.8637H42.4257Z" fill="#FFF8DC"/>
<path d="M41.6047 12.5794C41.3558 14.2956 40.78 15.9533 39.9279 17.4122C39.1304 18.7813 38.1267 20.0177 36.9517 21.0514L35.1777 16.7725C35.4656 16.2342 35.7651 15.7076 36.0686 15.1888C36.7922 13.9329 37.5042 12.7159 38.2862 11.4638C39.0643 10.2078 39.7996 8.92842 40.8422 7.41499C41.6592 9.03373 41.8265 10.8553 41.597 12.5794H41.6047Z" fill="#FFF8DC"/>
<path d="M37.2824 5.94448C37.1307 7.00934 36.8195 8.05079 36.3526 9.00253C35.8857 9.95427 35.2905 10.8358 34.5863 11.6159C34.2401 11.9826 33.8744 12.3414 33.4814 12.6535L32.8901 11.222C32.9679 11.0308 33.0535 10.8436 33.1313 10.6564C33.5281 9.75534 33.9327 8.88551 34.349 8.03129L35.6095 5.46081C36.0453 4.59098 36.4343 3.71335 36.9751 2.73041C37.3602 3.76796 37.4264 4.87962 37.2863 5.94448H37.2824Z" fill="#FFF8DC"/>
<path d="M28.1009 2.11021C27.7352 1.96199 27.3267 1.88398 26.8715 1.88398H26.8209C26.7548 1.25989 26.7587 0.631893 26.9221 0C27.3889 0.717706 27.7624 1.41981 28.1009 2.11021Z" fill="#FFF8DC"/>
<path d="M152.25 58.0561H130.627C129.553 58.0561 128.682 57.1824 128.682 56.1059C128.682 55.0293 129.553 54.1556 130.627 54.1556H152.25C153.324 54.1556 154.195 55.0293 154.195 56.1059C154.195 57.1824 153.324 58.0561 152.25 58.0561Z" fill="#FFF8DC"/>
<path d="M68.0756 101.821H46.4523C45.3785 101.821 44.5071 100.947 44.5071 99.8703C44.5071 98.7937 45.3785 97.92 46.4523 97.92H68.0756C69.1494 97.92 70.0208 98.7937 70.0208 99.8703C70.0208 100.947 69.1494 101.821 68.0756 101.821Z" fill="#FFF8DC"/>
</g>
<defs>
<clipPath id="clip0_2016_73">
<rect width="159" height="102" fill="white"/>
</clipPath>
</defs>
</svg>
