<svg width="25" height="25" viewBox="0 0 25 25" fill="none" xmlns="http://www.w3.org/2000/svg">
<path d="M14.0625 -1.4592e-05L17.1572 -3.05176e-05C17.3806 1.11717 18.0009 2.52662 19.086 3.92488C20.1492 5.29497 21.558 6.24998 23.4375 6.24998V9.37498C20.6978 9.37498 18.6392 8.10379 17.1875 6.51777V17.1875C17.1875 21.5022 13.6897 25 9.375 25C5.06027 25 1.5625 21.5022 1.5625 17.1875C1.5625 12.8728 5.06028 9.37498 9.375 9.37498V12.5C6.78617 12.5 4.6875 14.5986 4.6875 17.1875C4.6875 19.7763 6.78617 21.875 9.375 21.875C11.9638 21.875 14.0625 19.7763 14.0625 17.1875V-1.4592e-05Z" fill="#FFF8DC"/>
</svg>
